<svg width="24" height="25" viewBox="0 0 24 25" fill="none" xmlns="http://www.w3.org/2000/svg">
    <path fill-rule="evenodd" clip-rule="evenodd" d="M5.43797 24.0915H18.5569C19.5408 24.0915 20.3372 23.259 20.3344 22.2341L20.3334 21.9724C20.3409 18.5568 20.3438 15.1413 20.332 11.7258C20.3278 10.5734 19.4105 9.64179 18.3028 9.61395C18.1415 9.60965 17.9801 9.61073 17.8092 9.61188C17.7278 9.61242 17.6443 9.61298 17.5575 9.61298V9.362C17.5575 9.11652 17.5576 8.871 17.5577 8.62546C17.5578 8.01142 17.558 7.39728 17.557 6.78339C17.5514 3.84003 15.5995 1.45624 12.8086 0.983585C9.90094 0.490909 6.98953 2.6745 6.52734 5.7038C6.46969 6.08124 6.44578 6.46796 6.44063 6.85077C6.432 7.49539 6.43371 8.14025 6.43544 8.79506C6.43616 9.06529 6.43688 9.33721 6.43688 9.61151C6.36672 9.61151 6.29818 9.61146 6.23072 9.6114C6.09895 9.61129 5.97133 9.61119 5.84391 9.61151C4.55391 9.61395 3.65766 10.5427 3.65719 11.8835C3.65578 15.1781 3.65625 18.4727 3.65672 21.7673L3.65672 21.7682V22.236C3.65672 23.2604 4.45406 24.0915 5.43797 24.0915ZM13.1798 3.05487C14.6588 3.58808 15.6375 5.05829 15.652 6.68866L15.6778 9.59833H8.30391C8.30266 9.57244 8.30115 9.54785 8.29969 9.52411C8.29677 9.47667 8.29406 9.43263 8.29406 9.38837C8.29394 9.14988 8.2936 8.91138 8.29326 8.67289C8.29236 8.03687 8.29146 7.40085 8.29453 6.76483C8.30438 4.77606 9.58031 3.22187 11.4661 2.89569C12.0506 2.79462 12.6375 2.85907 13.1798 3.05487ZM8.74262 18.9826C8.44395 18.9826 8.17632 18.9321 7.93971 18.8311C7.7031 18.7301 7.51304 18.5806 7.36953 18.3826C7.22989 18.1846 7.1562 17.9462 7.14844 17.6674H8.20735C8.22286 17.825 8.27523 17.9462 8.36444 18.0311C8.45365 18.1119 8.57001 18.1523 8.71353 18.1523C8.86092 18.1523 8.97729 18.1179 9.06262 18.0492C9.14795 17.9765 9.19062 17.8775 9.19062 17.7523C9.19062 17.6472 9.15571 17.5604 9.08589 17.4917C9.01995 17.423 8.93656 17.3664 8.83571 17.322C8.73874 17.2775 8.5991 17.227 8.4168 17.1705C8.15304 17.0856 7.93777 17.0008 7.77098 16.9159C7.6042 16.8311 7.46068 16.7058 7.34044 16.5402C7.2202 16.3745 7.16007 16.1583 7.16007 15.8917C7.16007 15.4957 7.29777 15.1866 7.57316 14.9644C7.84856 14.7381 8.20735 14.625 8.64953 14.625C9.09947 14.625 9.46214 14.7381 9.73753 14.9644C10.0129 15.1866 10.1603 15.4977 10.1797 15.8977H9.10335C9.09559 15.7604 9.0471 15.6533 8.95789 15.5765C8.86868 15.4957 8.75426 15.4553 8.61462 15.4553C8.49438 15.4553 8.39741 15.4896 8.32371 15.5583C8.25001 15.623 8.21316 15.7179 8.21316 15.8432C8.21316 15.9806 8.27523 16.0876 8.39935 16.1644C8.52347 16.2412 8.71741 16.324 8.98117 16.4129C9.24492 16.5058 9.45826 16.5947 9.62117 16.6795C9.78795 16.7644 9.93147 16.8876 10.0517 17.0492C10.172 17.2109 10.2321 17.4189 10.2321 17.6735C10.2321 17.9159 10.172 18.1361 10.0517 18.3341C9.93535 18.5321 9.76468 18.6896 9.53971 18.8068C9.31474 18.924 9.04904 18.9826 8.74262 18.9826ZM12.3222 18.9826C12.0235 18.9826 11.7559 18.9321 11.5193 18.8311C11.2827 18.7301 11.0926 18.5806 10.9491 18.3826C10.8094 18.1846 10.7357 17.9462 10.728 17.6674H11.7869C11.8024 17.825 11.8548 17.9462 11.944 18.0311C12.0332 18.1119 12.1496 18.1523 12.2931 18.1523C12.4405 18.1523 12.5568 18.1179 12.6422 18.0492C12.7275 17.9765 12.7702 17.8775 12.7702 17.7523C12.7702 17.6472 12.7353 17.5604 12.6654 17.4917C12.5995 17.423 12.5161 17.3664 12.4153 17.322C12.3183 17.2775 12.1786 17.227 11.9963 17.1705C11.7326 17.0856 11.5173 17.0008 11.3505 16.9159C11.1837 16.8311 11.0402 16.7058 10.92 16.5402C10.7997 16.3745 10.7396 16.1583 10.7396 15.8917C10.7396 15.4957 10.8773 15.1866 11.1527 14.9644C11.4281 14.7381 11.7869 14.625 12.2291 14.625C12.679 14.625 13.0417 14.7381 13.3171 14.9644C13.5925 15.1866 13.7399 15.4977 13.7593 15.8977H12.6829C12.6751 15.7604 12.6267 15.6533 12.5374 15.5765C12.4482 15.4957 12.3338 15.4553 12.1942 15.4553C12.0739 15.4553 11.977 15.4896 11.9033 15.5583C11.8296 15.623 11.7927 15.7179 11.7927 15.8432C11.7927 15.9806 11.8548 16.0876 11.9789 16.1644C12.103 16.2412 12.297 16.324 12.5607 16.4129C12.8245 16.5058 13.0378 16.5947 13.2007 16.6795C13.3675 16.7644 13.511 16.8876 13.6313 17.0492C13.7515 17.2109 13.8116 17.4189 13.8116 17.6735C13.8116 17.9159 13.7515 18.1361 13.6313 18.3341C13.5149 18.5321 13.3442 18.6896 13.1193 18.8068C12.8943 18.924 12.6286 18.9826 12.3222 18.9826ZM16.7221 18.1402H15.4188V14.6856H14.4239V18.9402H16.7221V18.1402Z" fill="#060048" fill-opacity="0.2"/>
</svg>
