<svg width="23" height="23" viewBox="0 0 23 23" fill="none" xmlns="http://www.w3.org/2000/svg">
    <path fill-rule="evenodd" clip-rule="evenodd" d="M11.5 23C17.8513 23 23 17.8513 23 11.5C23 5.14873 17.8513 0 11.5 0C5.14873 0 0 5.14873 0 11.5C0 17.8513 5.14873 23 11.5 23ZM8.77686 11.2602C8.19254 10.9494 7.90037 10.4615 7.90037 9.79632C7.90037 9.46064 7.9874 9.15605 8.16145 8.88253C8.33551 8.6028 8.5997 8.38213 8.95402 8.22051C9.30835 8.05267 9.74348 7.96875 10.2594 7.96875C10.7754 7.96875 11.2074 8.05267 11.5555 8.22051C11.9098 8.38213 12.174 8.6028 12.3481 8.88253C12.5221 9.15605 12.6092 9.46064 12.6092 9.79632C12.6092 10.132 12.5283 10.4242 12.3667 10.6728C12.2113 10.9215 12 11.1173 11.7327 11.2602C12.0683 11.4219 12.3263 11.6456 12.5066 11.9316C12.6869 12.2113 12.777 12.5408 12.777 12.92C12.777 13.3613 12.6651 13.7436 12.4413 14.0669C12.2175 14.3839 11.9129 14.6263 11.5275 14.7942C11.1483 14.962 10.7256 15.0459 10.2594 15.0459C9.79321 15.0459 9.3674 14.962 8.98199 14.7942C8.60281 14.6263 8.30132 14.3839 8.07754 14.0669C7.85375 13.7436 7.74186 13.3613 7.74186 12.92C7.74186 12.5346 7.832 12.202 8.01226 11.9223C8.19254 11.6363 8.4474 11.4156 8.77686 11.2602ZM11.0613 10.0388C11.0613 9.78389 10.9867 9.58807 10.8375 9.45132C10.6946 9.30834 10.5019 9.23686 10.2594 9.23686C10.017 9.23686 9.82118 9.30834 9.672 9.45132C9.52902 9.59429 9.45753 9.79321 9.45753 10.0481C9.45753 10.2905 9.53213 10.4832 9.68132 10.6262C9.83051 10.7629 10.0232 10.8313 10.2594 10.8313C10.4956 10.8313 10.6883 10.7598 10.8375 10.6169C10.9867 10.4739 11.0613 10.2812 11.0613 10.0388ZM10.2594 11.9502C9.96727 11.9502 9.73105 12.031 9.55078 12.1927C9.37051 12.3481 9.28037 12.5656 9.28037 12.8454C9.28037 13.1065 9.3674 13.3209 9.54145 13.4888C9.72172 13.6566 9.96105 13.7405 10.2594 13.7405C10.5578 13.7405 10.7909 13.6566 10.9588 13.4888C11.1328 13.3209 11.2198 13.1065 11.2198 12.8454C11.2198 12.5719 11.1297 12.3543 10.9494 12.1927C10.7754 12.031 10.5454 11.9502 10.2594 11.9502ZM3.98438 9.59118V8.10861H6.56721V14.9154H4.90748V9.59118H3.98438ZM16.9677 12.3698H18.5901V10.9432H16.9677V9.27416H15.4572V10.9432H13.8347V12.3698H15.4572V14.0296H16.9677V12.3698Z" fill="#060048" fill-opacity="0.2"/>
</svg>
