<svg width="21" height="12" viewBox="0 0 21 12" fill="none" xmlns="http://www.w3.org/2000/svg">
<path d="M21 0H0V12H21V0Z" fill="#3C9242"/>
<path d="M3.24219 6.00231L10.5008 10.5437L17.7657 6.00231L10.5008 1.46094L3.24219 6.00231Z" fill="#EDC226"/>
<path d="M13.5573 6.00306C13.5573 7.65781 12.1869 9 10.4974 9C8.80788 9 7.4375 7.65781 7.4375 6.00306C7.4375 4.34831 8.80788 3 10.4974 3C12.1869 3 13.5573 4.34831 13.5573 6.00306Z" fill="#2D146E"/>
<path d="M8.75301 4.71875C8.39633 4.71875 8.04592 4.74326 7.70176 4.79229C7.63292 4.93938 7.58286 5.0926 7.53906 5.25195C7.93328 5.18453 8.34002 5.14776 8.75301 5.14776C10.5489 5.14776 12.1883 5.80966 13.4273 6.90057C13.4774 6.74735 13.5149 6.588 13.5337 6.42866C12.2384 5.36226 10.5739 4.71875 8.75301 4.71875Z" fill="white"/>
<path fill-rule="evenodd" clip-rule="evenodd" d="M7.88803 5.12445C7.95686 5.11832 8.01317 5.04478 8.00066 4.96511C7.9944 4.88543 7.92557 4.83027 7.85674 4.8364C7.78165 4.84253 7.73159 4.91607 7.7441 4.99575C7.75036 5.07542 7.81294 5.13058 7.88803 5.12445ZM7.88177 5.06929C7.91931 5.06316 7.9506 5.02026 7.94434 4.97123C7.93809 4.9222 7.90054 4.88543 7.85674 4.89156C7.81294 4.89769 7.78165 4.94059 7.78791 4.98962C7.80042 5.03865 7.83797 5.07542 7.88177 5.06929Z" fill="#3C9242"/>
<path fill-rule="evenodd" clip-rule="evenodd" d="M8.12659 5.10499L8.17665 5.09887L8.17039 4.99468L8.28929 4.98855C8.33935 4.98242 8.37689 4.93952 8.37063 4.89049C8.36438 4.84146 8.32057 4.80469 8.27051 4.80469L8.10156 4.81694L8.12659 5.10499ZM8.16414 4.93952L8.27677 4.93339C8.29554 4.93339 8.30806 4.915 8.30806 4.89049C8.30806 4.8721 8.28929 4.85372 8.27051 4.85985L8.15788 4.86597L8.16414 4.93952Z" fill="#3C9242"/>
<path d="M8.36893 5.08183C8.36893 5.03893 8.36267 4.95312 8.3001 4.95312L8.21875 4.95925C8.30635 4.95313 8.31887 5.04506 8.31887 5.08183" fill="#3C9242"/>
<path fill-rule="evenodd" clip-rule="evenodd" d="M8.49219 5.07711H8.62985C8.69868 5.07711 8.755 5.02195 8.755 4.95454V4.91164C8.755 4.84422 8.69868 4.78906 8.62985 4.78906H8.49219V5.07711ZM8.54225 5.02195H8.62359C8.6674 5.02195 8.70494 4.98518 8.69868 4.94228V4.91777C8.69868 4.87486 8.66114 4.84422 8.61734 4.84422H8.53599L8.54225 5.02195Z" fill="#3C9242"/>
<path d="M8.86719 5.07098L9.13 5.08324V5.02808L8.91725 5.02195L8.9235 4.94841L9.09246 4.95454V4.90551L8.9235 4.89938V4.84422L9.12374 4.85035V4.79519L8.8797 4.78906L8.86719 5.07098Z" fill="#3C9242"/>
<path d="M9.23438 5.09274H9.28443L9.30321 4.90275L9.34075 5.09887L9.39081 5.10499L9.4659 4.915L9.44713 5.11112L9.49719 5.11725L9.52222 4.8292L9.45339 4.82307L9.37204 5.01306L9.33449 4.81082L9.2594 4.80469L9.23438 5.09274Z" fill="#3C9242"/>
<path d="M9.83594 5.15584L10.0549 5.18649L10.0612 5.14359L9.89851 5.11294L9.91103 5.05166L10.0487 5.07004L10.0549 5.02101L9.91728 5.00263L9.92354 4.95972L10.0862 4.98424L10.0925 4.93521L9.886 4.89844L9.83594 5.15584Z" fill="#3C9242"/>
<path fill-rule="evenodd" clip-rule="evenodd" d="M10.3906 5.26017L10.4407 5.27242L10.472 5.16824L10.5846 5.19275C10.6347 5.21114 10.6847 5.18049 10.6972 5.13759C10.7098 5.08856 10.6785 5.03953 10.6284 5.02728L10.4657 4.98438L10.3906 5.26017ZM10.4845 5.11921L10.5909 5.14985C10.6159 5.14985 10.6347 5.13759 10.6409 5.11921C10.6472 5.10082 10.6347 5.08243 10.6159 5.07631L10.5095 5.05179L10.4845 5.11921Z" fill="#3C9242"/>
<path fill-rule="evenodd" clip-rule="evenodd" d="M10.75 5.35116L10.8001 5.36954L10.8313 5.27148L10.9377 5.30825C10.9878 5.32051 11.0378 5.296 11.0566 5.2531C11.0754 5.20407 11.0441 5.15504 11.0003 5.14278L10.8376 5.09375L10.75 5.35116ZM10.8564 5.21632L10.9628 5.24697C10.9815 5.2531 11.0003 5.24084 11.0066 5.22245C11.0128 5.20407 11.0003 5.18568 10.9815 5.17955L10.8751 5.14891L10.8564 5.21632Z" fill="#3C9242"/>
<path d="M10.9845 5.42329C10.997 5.38652 11.022 5.30071 10.9657 5.28233L10.8906 5.25781C10.9782 5.28233 10.9469 5.36813 10.9344 5.41103" fill="#3C9242"/>
<path fill-rule="evenodd" clip-rule="evenodd" d="M11.2207 5.51573C11.2895 5.54024 11.3646 5.50347 11.3959 5.42992C11.4272 5.35638 11.3959 5.27671 11.3271 5.25219C11.2582 5.22155 11.1769 5.26445 11.1519 5.33799C11.1206 5.41154 11.1581 5.49121 11.2207 5.51573ZM11.2395 5.4667C11.2833 5.48508 11.3271 5.45444 11.3459 5.41154C11.3646 5.36251 11.3459 5.31348 11.3083 5.30122C11.2708 5.28896 11.2207 5.31348 11.2019 5.35638C11.1832 5.39928 11.2019 5.44831 11.2395 5.4667Z" fill="#3C9242"/>
<path fill-rule="evenodd" clip-rule="evenodd" d="M11.5647 5.64937C11.6336 5.68002 11.7149 5.64324 11.7462 5.5697C11.7775 5.49615 11.7525 5.41648 11.6836 5.38584C11.6148 5.35519 11.5397 5.39197 11.5084 5.46551C11.4709 5.53906 11.5022 5.62486 11.5647 5.64937ZM11.5898 5.60034C11.6273 5.61873 11.6774 5.59421 11.6961 5.54518C11.7149 5.50228 11.7024 5.44712 11.6648 5.43487C11.6273 5.41648 11.5772 5.441 11.5585 5.49003C11.5334 5.53293 11.546 5.58196 11.5898 5.60034Z" fill="#3C9242"/>
<path d="M11.6516 5.52344L11.7517 5.56634L11.7329 5.60311L11.6328 5.56021L11.6516 5.52344Z" fill="#3C9242"/>
<path d="M11.7126 5.54688L11.7501 5.56526L11.6875 5.69396L11.6562 5.68171L11.7126 5.54688Z" fill="#3C9242"/>
<path fill-rule="evenodd" clip-rule="evenodd" d="M11.7891 5.74178L11.8391 5.7663L11.8892 5.66824L11.9956 5.72339C12.0394 5.74791 12.0957 5.72952 12.1207 5.68049C12.1457 5.63759 12.127 5.58243 12.0832 5.55792L11.933 5.48438L11.7891 5.74178ZM11.9142 5.61921L12.0143 5.66824C12.0331 5.68049 12.0519 5.66824 12.0644 5.64985C12.0706 5.63146 12.0644 5.60695 12.0456 5.60082L11.9455 5.55179L11.9142 5.61921Z" fill="#3C9242"/>
<path d="M12.0141 5.84792C12.0329 5.81115 12.0705 5.73148 12.0204 5.70083L11.9453 5.66406C12.0267 5.70696 11.9891 5.78664 11.9703 5.82341" fill="#3C9242"/>
<path d="M12.1172 5.90753L12.3487 6.0301L12.3737 5.9872L12.186 5.88301L12.2236 5.82173L12.3675 5.9014L12.3925 5.85237L12.2486 5.77882L12.2799 5.72367L12.4488 5.82173L12.4801 5.77882L12.2611 5.65625L12.1172 5.90753Z" fill="#3C9242"/>
<path d="M12.5453 6.04868C12.5265 6.0732 12.5453 6.09771 12.5765 6.12223C12.6141 6.14674 12.6329 6.14061 12.6454 6.12836C12.6767 6.07933 12.4952 6.00578 12.5515 5.91998C12.6016 5.84644 12.6829 5.90159 12.7142 5.91998C12.7455 5.93837 12.7956 5.99353 12.758 6.04868L12.7017 6.01191C12.7205 5.9874 12.7017 5.96288 12.6704 5.9445C12.6454 5.92611 12.6204 5.91998 12.6078 5.9445C12.5828 5.98127 12.7643 6.05481 12.7017 6.14674C12.6642 6.20803 12.5891 6.18352 12.5453 6.15287C12.5077 6.13449 12.4514 6.0732 12.4889 6.01804L12.5453 6.04868Z" fill="#3C9242"/>
<path d="M12.8604 6.25135C12.8416 6.27587 12.8541 6.30038 12.8916 6.3249C12.9229 6.34941 12.9542 6.34941 12.9605 6.33715C12.9918 6.28813 12.8103 6.20845 12.8791 6.12878C12.9292 6.05523 13.0105 6.11652 13.0418 6.14104C13.0731 6.16555 13.1169 6.21458 13.0731 6.27587L13.023 6.2391C13.0418 6.21458 13.023 6.19007 12.9918 6.17168C12.9667 6.15329 12.948 6.14717 12.9292 6.17168C12.8979 6.20845 13.0731 6.29425 13.0168 6.37393C12.973 6.43521 12.8979 6.40457 12.8604 6.37393C12.8228 6.34941 12.7602 6.282 12.804 6.22684L12.8604 6.25135Z" fill="#3C9242"/>
<path fill-rule="evenodd" clip-rule="evenodd" d="M13.148 6.58197C13.2043 6.62487 13.2919 6.61261 13.342 6.55133C13.3921 6.49004 13.3858 6.40424 13.3295 6.36134C13.2732 6.31843 13.1856 6.33069 13.1355 6.39198C13.0854 6.45327 13.0917 6.53907 13.148 6.58197ZM13.1856 6.53907C13.2169 6.56358 13.2732 6.55745 13.3045 6.51455C13.3357 6.47778 13.3295 6.42262 13.2982 6.39811C13.2669 6.37359 13.2169 6.37972 13.1793 6.42262C13.148 6.45939 13.148 6.51455 13.1856 6.53907Z" fill="#3C9242"/>
<path d="M7.99693 5.33594L7.95312 5.45851L8.0157 5.4769L7.99693 5.33594Z" fill="white"/>
<path d="M8.00159 5.33594L8.03914 5.45851L7.97656 5.4769L8.00159 5.33594Z" fill="white"/>
<path d="M8.11734 5.42188H7.99219V5.48929L8.11734 5.42188Z" fill="white"/>
<path d="M8.12048 5.42188L8.02036 5.50155L7.97656 5.44639L8.12048 5.42188Z" fill="white"/>
<path d="M7.875 5.42188L7.98138 5.50155L8.01892 5.44639L7.875 5.42188Z" fill="white"/>
<path d="M7.875 5.42188H8.00641V5.48929L7.875 5.42188Z" fill="white"/>
<path d="M8.07668 5.56789L8.03288 5.44531L7.97656 5.4637L8.07668 5.56789Z" fill="white"/>
<path d="M8.07513 5.5662L7.96875 5.48653L8.00629 5.4375L8.07513 5.5662Z" fill="white"/>
<path d="M7.92188 5.5662L8.02825 5.48653L7.99071 5.4375L7.92188 5.5662Z" fill="white"/>
<path d="M7.92188 5.56789L7.96568 5.44531L8.02825 5.4637L7.92188 5.56789Z" fill="white"/>
<path d="M8.27037 6.60156L8.22656 6.72414L8.29539 6.74252L8.27037 6.60156Z" fill="white"/>
<path d="M8.26877 6.60156L8.30632 6.72414L8.25 6.74252L8.26877 6.60156Z" fill="white"/>
<path d="M8.39703 6.67969H8.26562V6.7471L8.39703 6.67969Z" fill="white"/>
<path d="M8.39392 6.67969L8.28755 6.75936L8.25 6.7042L8.39392 6.67969Z" fill="white"/>
<path d="M8.14844 6.67969L8.25481 6.75936L8.29236 6.7042L8.14844 6.67969Z" fill="white"/>
<path d="M8.14844 6.67969H8.27984V6.7471L8.14844 6.67969Z" fill="white"/>
<path d="M8.34231 6.83351L8.30476 6.71094L8.24219 6.72932L8.34231 6.83351Z" fill="white"/>
<path d="M8.34856 6.83183L8.24219 6.75215L8.27973 6.70312L8.34856 6.83183Z" fill="white"/>
<path d="M8.1875 6.83183L8.30013 6.75215L8.25633 6.70312L8.1875 6.83183Z" fill="white"/>
<path d="M8.1875 6.83351L8.2313 6.71094L8.29388 6.72932L8.1875 6.83351Z" fill="white"/>
<path d="M7.89222 6.90625L7.86719 6.99205L7.90473 7.00431L7.89222 6.90625Z" fill="white"/>
<path d="M7.89533 6.90625L7.92036 6.99205L7.88281 7.00431L7.89533 6.90625Z" fill="white"/>
<path d="M7.97823 6.96875H7.89062V7.01165L7.97823 6.96875Z" fill="white"/>
<path d="M7.97667 6.96875L7.90784 7.02391L7.88281 6.98714L7.97667 6.96875Z" fill="white"/>
<path d="M7.8125 6.96875L7.88133 7.02391L7.90636 6.98714L7.8125 6.96875Z" fill="white"/>
<path d="M7.8125 6.96875H7.9001V7.01165L7.8125 6.96875Z" fill="white"/>
<path d="M7.94383 7.06405L7.9188 6.98438L7.875 6.99663L7.94383 7.06405Z" fill="white"/>
<path d="M7.94383 7.06236L7.875 7.01333L7.90003 6.97656L7.94383 7.06236Z" fill="white"/>
<path d="M7.84375 7.06236L7.91258 7.01333L7.88755 6.97656L7.84375 7.06236Z" fill="white"/>
<path d="M7.84375 7.06405L7.86878 6.98438L7.90632 6.99663L7.84375 7.06405Z" fill="white"/>
<path d="M8.57346 6.48438L8.55469 6.53953L8.57972 6.55179L8.57346 6.48438Z" fill="white"/>
<path d="M8.5672 6.48438L8.58597 6.53953L8.55469 6.55179L8.5672 6.48438Z" fill="white"/>
<path d="M8.62663 6.52344H8.57031V6.55408L8.62663 6.52344Z" fill="white"/>
<path d="M8.62507 6.52344L8.57502 6.56021L8.5625 6.52957L8.62507 6.52344Z" fill="white"/>
<path d="M8.50781 6.52344L8.56413 6.56021L8.57664 6.52957L8.50781 6.52344Z" fill="white"/>
<path d="M8.50781 6.52344H8.57039V6.55408L8.50781 6.52344Z" fill="white"/>
<path d="M8.60475 6.59254L8.57972 6.53125L8.55469 6.54351L8.60475 6.59254Z" fill="white"/>
<path d="M8.60475 6.59254L8.55469 6.55576L8.57346 6.53125L8.60475 6.59254Z" fill="white"/>
<path d="M8.53125 6.59254L8.58131 6.55576L8.56254 6.53125L8.53125 6.59254Z" fill="white"/>
<path d="M8.53125 6.59254L8.55002 6.53125L8.58131 6.54351L8.53125 6.59254Z" fill="white"/>
<path d="M8.90629 6.91406L8.875 7.01212L8.9188 7.03051L8.90629 6.91406Z" fill="white"/>
<path d="M8.9094 6.91406L8.94068 7.01212L8.89062 7.03051L8.9094 6.91406Z" fill="white"/>
<path d="M9.00481 6.99219H8.89844V7.04735L9.00481 6.99219Z" fill="white"/>
<path d="M9.00952 6.99219L8.92191 7.05348L8.89062 7.01057L9.00952 6.99219Z" fill="white"/>
<path d="M8.80469 6.99219L8.89229 7.05348L8.92358 7.01057L8.80469 6.99219Z" fill="white"/>
<path d="M8.80469 6.99219H8.91732V7.04735L8.80469 6.99219Z" fill="white"/>
<path d="M8.97042 7.10587L8.93913 7.00781L8.88281 7.0262L8.97042 7.10587Z" fill="white"/>
<path d="M8.97042 7.10419L8.88281 7.0429L8.9141 7L8.97042 7.10419Z" fill="white"/>
<path d="M8.84375 7.10419L8.93135 7.0429L8.89381 7L8.84375 7.10419Z" fill="white"/>
<path d="M8.84375 7.10587L8.87504 7.00781L8.9251 7.0262L8.84375 7.10587Z" fill="white"/>
<path d="M8.81254 7.21094L8.78125 7.31513L8.83131 7.33351L8.81254 7.21094Z" fill="white"/>
<path d="M8.81565 7.21094L8.84693 7.31513L8.79688 7.33351L8.81565 7.21094Z" fill="white"/>
<path d="M8.91732 7.28906H8.80469V7.33809L8.91732 7.28906Z" fill="white"/>
<path d="M8.92202 7.28906L8.83442 7.35035L8.79688 7.30745L8.92202 7.28906Z" fill="white"/>
<path d="M8.71094 7.28906L8.79854 7.35035L8.82983 7.30745L8.71094 7.28906Z" fill="white"/>
<path d="M8.71094 7.28906H8.81732V7.33809L8.71094 7.28906Z" fill="white"/>
<path d="M8.87822 7.40887L8.84693 7.30469L8.79688 7.32307L8.87822 7.40887Z" fill="white"/>
<path d="M8.87667 7.40887L8.78906 7.34759L8.82661 7.30469L8.87667 7.40887Z" fill="white"/>
<path d="M8.75 7.40887L8.8376 7.34759L8.80632 7.30469L8.75 7.40887Z" fill="white"/>
<path d="M8.75 7.40887L8.78129 7.30469L8.8376 7.32307L8.75 7.40887Z" fill="white"/>
<path d="M11.4501 4.94531L11.4062 5.06789L11.4751 5.08627L11.4501 4.94531Z" fill="white"/>
<path d="M11.4469 4.94531L11.4907 5.06789L11.4219 5.08627L11.4469 4.94531Z" fill="white"/>
<path d="M11.5767 5.03125H11.4453V5.09867L11.5767 5.03125Z" fill="white"/>
<path d="M11.5736 5.03125L11.4672 5.11092L11.4297 5.05576L11.5736 5.03125Z" fill="white"/>
<path d="M11.3203 5.03125L11.4267 5.11092L11.4642 5.05576L11.3203 5.03125Z" fill="white"/>
<path d="M11.3203 5.03125H11.4517V5.09867L11.3203 5.03125Z" fill="white"/>
<path d="M11.522 5.17726L11.4844 5.05469L11.4219 5.07307L11.522 5.17726Z" fill="white"/>
<path d="M11.5204 5.17558L11.4141 5.10203L11.4516 5.04688L11.5204 5.17558Z" fill="white"/>
<path d="M11.375 5.17558L11.4814 5.10203L11.4438 5.04688L11.375 5.17558Z" fill="white"/>
<path d="M11.375 5.17726L11.4125 5.05469L11.4751 5.07307L11.375 5.17726Z" fill="white"/>
<path d="M12.6454 6.92969L12.6016 7.05226L12.6704 7.07065L12.6454 6.92969Z" fill="white"/>
<path d="M12.6438 6.92969L12.6876 7.05226L12.625 7.07065L12.6438 6.92969Z" fill="white"/>
<path d="M12.772 7.01562H12.6406V7.07691L12.772 7.01562Z" fill="white"/>
<path d="M12.7689 7.01562L12.6625 7.08917L12.625 7.04014L12.7689 7.01562Z" fill="white"/>
<path d="M12.5156 7.01562L12.622 7.08917L12.6595 7.04014L12.5156 7.01562Z" fill="white"/>
<path d="M12.5156 7.01562H12.647V7.07691L12.5156 7.01562Z" fill="white"/>
<path d="M12.7236 7.16164L12.6798 7.03906L12.6172 7.05745L12.7236 7.16164Z" fill="white"/>
<path d="M12.7236 7.15995L12.6172 7.08028L12.6547 7.03125L12.7236 7.15995Z" fill="white"/>
<path d="M12.5703 7.15995L12.6767 7.08028L12.6391 7.03125L12.5703 7.15995Z" fill="white"/>
<path d="M12.5703 7.16164L12.6079 7.03906L12.6704 7.05745L12.5703 7.16164Z" fill="white"/>
<path d="M13.0719 7L13.0469 7.07967L13.0907 7.09806L13.0719 7Z" fill="white"/>
<path d="M13.0672 7L13.0985 7.07967L13.0547 7.09806L13.0672 7Z" fill="white"/>
<path d="M13.1501 7.05469H13.0625V7.09759L13.1501 7.05469Z" fill="white"/>
<path d="M13.1485 7.05469L13.0797 7.10372L13.0547 7.06694L13.1485 7.05469Z" fill="white"/>
<path d="M12.9844 7.05469L13.0532 7.10372L13.0782 7.06694L12.9844 7.05469Z" fill="white"/>
<path d="M12.9844 7.05469H13.072V7.09759L12.9844 7.05469Z" fill="white"/>
<path d="M13.1157 7.15611L13.0907 7.07031L13.0469 7.08257L13.1157 7.15611Z" fill="white"/>
<path d="M13.1157 7.15611L13.0469 7.10096L13.0719 7.07031L13.1157 7.15611Z" fill="white"/>
<path d="M13.0156 7.15611L13.0845 7.10096L13.0594 7.07031L13.0156 7.15611Z" fill="white"/>
<path d="M13.0156 7.15611L13.0407 7.07031L13.0845 7.08257L13.0156 7.15611Z" fill="white"/>
<path d="M12.7657 7.21094L12.7344 7.31513L12.7844 7.33351L12.7657 7.21094Z" fill="white"/>
<path d="M12.7688 7.21094L12.8001 7.31513L12.75 7.33351L12.7688 7.21094Z" fill="white"/>
<path d="M12.8783 7.28906H12.7656V7.33809L12.8783 7.28906Z" fill="white"/>
<path d="M12.8751 7.28906L12.7875 7.35035L12.75 7.30745L12.8751 7.28906Z" fill="white"/>
<path d="M12.6719 7.28906L12.7595 7.35035L12.7908 7.30745L12.6719 7.28906Z" fill="white"/>
<path d="M12.6719 7.28906H12.7783V7.33809L12.6719 7.28906Z" fill="white"/>
<path d="M12.8313 7.40887L12.8001 7.30469L12.75 7.32307L12.8313 7.40887Z" fill="white"/>
<path d="M12.8298 7.40887L12.7422 7.34759L12.7735 7.30469L12.8298 7.40887Z" fill="white"/>
<path d="M12.7031 7.40887L12.7907 7.34759L12.7594 7.30469L12.7031 7.40887Z" fill="white"/>
<path d="M12.7031 7.40887L12.7344 7.30469L12.7907 7.32307L12.7031 7.40887Z" fill="white"/>
<path d="M12.0313 7.84375L12 7.94181L12.0501 7.9602L12.0313 7.84375Z" fill="white"/>
<path d="M12.0344 7.84375L12.0719 7.94181L12.0156 7.9602L12.0344 7.84375Z" fill="white"/>
<path d="M12.1361 7.91406H12.0234V7.96922L12.1361 7.91406Z" fill="white"/>
<path d="M12.1408 7.91406L12.0532 7.97535L12.0156 7.93245L12.1408 7.91406Z" fill="white"/>
<path d="M11.9297 7.91406L12.0173 7.97535L12.0486 7.93245L11.9297 7.91406Z" fill="white"/>
<path d="M11.9297 7.91406H12.0361V7.96922L11.9297 7.91406Z" fill="white"/>
<path d="M12.097 8.03387L12.0657 7.92969L12.0156 7.94807L12.097 8.03387Z" fill="white"/>
<path d="M12.0954 8.04L12.0078 7.97259L12.0391 7.92969L12.0954 8.04Z" fill="white"/>
<path d="M11.9688 8.04L12.0564 7.97259L12.0251 7.92969L11.9688 8.04Z" fill="white"/>
<path d="M11.9688 8.03387L12 7.92969L12.0564 7.94807L11.9688 8.03387Z" fill="white"/>
<path d="M12.025 8.16406L12 8.24374L12.0438 8.25599L12.025 8.16406Z" fill="white"/>
<path d="M12.0281 8.16406L12.0594 8.24374L12.0156 8.25599L12.0281 8.16406Z" fill="white"/>
<path d="M12.111 8.22656H12.0234V8.26333L12.111 8.22656Z" fill="white"/>
<path d="M12.1157 8.22656L12.0407 8.27559L12.0156 8.23882L12.1157 8.22656Z" fill="white"/>
<path d="M11.9453 8.22656L12.0141 8.27559L12.0454 8.23882L11.9453 8.22656Z" fill="white"/>
<path d="M11.9453 8.22656H12.0329V8.26333L11.9453 8.22656Z" fill="white"/>
<path d="M12.0845 8.32186L12.0532 8.24219L12.0156 8.25445L12.0845 8.32186Z" fill="white"/>
<path d="M12.0829 8.32018L12.0078 8.27115L12.0328 8.23438L12.0829 8.32018Z" fill="white"/>
<path d="M11.9766 8.32018L12.0517 8.27115L12.0204 8.23438L11.9766 8.32018Z" fill="white"/>
<path d="M11.9766 8.32186L12.0079 8.24219L12.0454 8.25445L11.9766 8.32186Z" fill="white"/>
<path d="M12.336 7.625L12.3047 7.70467L12.3485 7.71693L12.336 7.625Z" fill="white"/>
<path d="M12.3406 7.625L12.3657 7.70467L12.3281 7.71693L12.3406 7.625Z" fill="white"/>
<path d="M12.4157 7.67969H12.3281V7.72259L12.4157 7.67969Z" fill="white"/>
<path d="M12.422 7.67969L12.3532 7.73485L12.3281 7.69807L12.422 7.67969Z" fill="white"/>
<path d="M12.2578 7.67969L12.3266 7.73485L12.3517 7.69807L12.2578 7.67969Z" fill="white"/>
<path d="M12.2578 7.67969H12.3454V7.72259L12.2578 7.67969Z" fill="white"/>
<path d="M12.3891 7.7828L12.3641 7.70312L12.3203 7.71538L12.3891 7.7828Z" fill="white"/>
<path d="M12.3891 7.78111L12.3203 7.73208L12.3453 7.69531L12.3891 7.78111Z" fill="white"/>
<path d="M12.2891 7.78111L12.3579 7.73208L12.3329 7.69531L12.2891 7.78111Z" fill="white"/>
<path d="M12.2891 7.7828L12.3141 7.70312L12.3579 7.71538L12.2891 7.7828Z" fill="white"/>
<path d="M12.5782 7.45312L12.5469 7.55118L12.5969 7.56957L12.5782 7.45312Z" fill="white"/>
<path d="M12.5813 7.45312L12.6188 7.55118L12.5625 7.56957L12.5813 7.45312Z" fill="white"/>
<path d="M12.6908 7.53125H12.5781V7.58028L12.6908 7.53125Z" fill="white"/>
<path d="M12.6892 7.53125L12.6016 7.59254L12.5703 7.54964L12.6892 7.53125Z" fill="white"/>
<path d="M12.4844 7.53125L12.572 7.59254L12.6033 7.54964L12.4844 7.53125Z" fill="white"/>
<path d="M12.4844 7.53125H12.5908V7.58028L12.4844 7.53125Z" fill="white"/>
<path d="M12.6438 7.64493L12.6126 7.54688L12.5625 7.55913L12.6438 7.64493Z" fill="white"/>
<path d="M12.6423 7.64325L12.5547 7.58196L12.586 7.53906L12.6423 7.64325Z" fill="white"/>
<path d="M12.5156 7.64325L12.6032 7.58196L12.5719 7.53906L12.5156 7.64325Z" fill="white"/>
<path d="M12.5156 7.64493L12.5469 7.54688L12.597 7.55913L12.5156 7.64493Z" fill="white"/>
<path d="M12.0172 7.5625L11.9922 7.6483L12.0297 7.66056L12.0172 7.5625Z" fill="white"/>
<path d="M12.0203 7.5625L12.0516 7.6483L12.0078 7.66056L12.0203 7.5625Z" fill="white"/>
<path d="M12.1095 7.625H12.0156V7.6679L12.1095 7.625Z" fill="white"/>
<path d="M12.1079 7.625L12.0328 7.67403L12.0078 7.64339L12.1079 7.625Z" fill="white"/>
<path d="M11.9375 7.625L12.0063 7.67403L12.0314 7.64339L11.9375 7.625Z" fill="white"/>
<path d="M11.9375 7.625H12.0251V7.6679L11.9375 7.625Z" fill="white"/>
<path d="M12.0751 7.72643L12.0438 7.64062L12 7.65901L12.0751 7.72643Z" fill="white"/>
<path d="M12.0751 7.72643L12 7.67127L12.025 7.64062L12.0751 7.72643Z" fill="white"/>
<path d="M11.9688 7.72643L12.0376 7.67127L12.0126 7.64062L11.9688 7.72643Z" fill="white"/>
<path d="M11.9688 7.72643L11.9938 7.64062L12.0376 7.65901L11.9688 7.72643Z" fill="white"/>
<path d="M9.33442 6.01562L9.29688 6.11981L9.35319 6.13207L9.33442 6.01562Z" fill="white"/>
<path d="M9.33127 6.01562L9.36256 6.11981L9.3125 6.13207L9.33127 6.01562Z" fill="white"/>
<path d="M9.4345 6.08594H9.32812V6.1411L9.4345 6.08594Z" fill="white"/>
<path d="M9.43139 6.08594L9.34379 6.15335L9.3125 6.11045L9.43139 6.08594Z" fill="white"/>
<path d="M9.22656 6.08594L9.31417 6.15335L9.34545 6.11045L9.22656 6.08594Z" fill="white"/>
<path d="M9.22656 6.08594H9.33294V6.1411L9.22656 6.08594Z" fill="white"/>
<path d="M9.39229 6.21356L9.36101 6.10938L9.30469 6.12776L9.39229 6.21356Z" fill="white"/>
<path d="M9.39229 6.21356L9.30469 6.15228L9.33598 6.10938L9.39229 6.21356Z" fill="white"/>
<path d="M9.26562 6.21356L9.35949 6.15228L9.3282 6.10938L9.26562 6.21356Z" fill="white"/>
<path d="M9.26562 6.21356L9.30317 6.10938L9.35323 6.12776L9.26562 6.21356Z" fill="white"/>
<path d="M11.3297 5.76562L11.3047 5.8453L11.3485 5.85756L11.3297 5.76562Z" fill="white"/>
<path d="M11.3328 5.76562L11.3641 5.8453L11.3203 5.85756L11.3328 5.76562Z" fill="white"/>
<path d="M11.4157 5.82812H11.3281V5.87103L11.4157 5.82812Z" fill="white"/>
<path d="M11.4204 5.82812L11.3453 5.87715L11.3203 5.84038L11.4204 5.82812Z" fill="white"/>
<path d="M11.25 5.82812L11.3188 5.87715L11.3439 5.84038L11.25 5.82812Z" fill="white"/>
<path d="M11.25 5.82812H11.3376V5.87103L11.25 5.82812Z" fill="white"/>
<path d="M11.3891 5.92174L11.3579 5.83594L11.3203 5.84819L11.3891 5.92174Z" fill="white"/>
<path d="M11.3876 5.92006L11.3125 5.8649L11.3375 5.82812L11.3876 5.92006Z" fill="white"/>
<path d="M11.2812 5.92006L11.3501 5.8649L11.3251 5.82812L11.2812 5.92006Z" fill="white"/>
<path d="M11.2812 5.92174L11.3063 5.83594L11.3501 5.84819L11.2812 5.92174Z" fill="white"/>
<path d="M10.4969 7.21875L10.4531 7.3352L10.522 7.35971L10.4969 7.21875Z" fill="white"/>
<path d="M10.4953 7.21875L10.5391 7.3352L10.4766 7.35971L10.4953 7.21875Z" fill="white"/>
<path d="M10.6236 7.3125H10.4922V7.37992L10.6236 7.3125Z" fill="white"/>
<path d="M10.6205 7.3125L10.5141 7.38604L10.4766 7.33701L10.6205 7.3125Z" fill="white"/>
<path d="M10.375 7.3125L10.4876 7.38604L10.5189 7.33701L10.375 7.3125Z" fill="white"/>
<path d="M10.375 7.3125H10.5064V7.37992L10.375 7.3125Z" fill="white"/>
<path d="M10.5689 7.45851L10.5313 7.33594L10.4688 7.35432L10.5689 7.45851Z" fill="white"/>
<path d="M10.5689 7.45683L10.4688 7.37715L10.5 7.32812L10.5689 7.45683Z" fill="white"/>
<path d="M10.4219 7.45683L10.5283 7.37715L10.4907 7.32812L10.4219 7.45683Z" fill="white"/>
<path d="M10.4219 7.45851L10.4594 7.33594L10.522 7.35432L10.4219 7.45851Z" fill="white"/>
<path d="M10.85 6.64844L10.8125 6.7465L10.8688 6.76488L10.85 6.64844Z" fill="white"/>
<path d="M10.8547 6.64844L10.886 6.7465L10.8359 6.76488L10.8547 6.64844Z" fill="white"/>
<path d="M10.9579 6.71875H10.8516V6.76778L10.9579 6.71875Z" fill="white"/>
<path d="M10.9548 6.71875L10.8672 6.78004L10.8359 6.73714L10.9548 6.71875Z" fill="white"/>
<path d="M10.75 6.71875L10.8376 6.78004L10.8751 6.73714L10.75 6.71875Z" fill="white"/>
<path d="M10.75 6.71875H10.8626V6.76778L10.75 6.71875Z" fill="white"/>
<path d="M10.9157 6.84025L10.8844 6.74219L10.8281 6.76057L10.9157 6.84025Z" fill="white"/>
<path d="M10.9157 6.83856L10.8281 6.77728L10.8594 6.73438L10.9157 6.83856Z" fill="white"/>
<path d="M10.7891 6.83856L10.8829 6.77728L10.8516 6.73438L10.7891 6.83856Z" fill="white"/>
<path d="M10.7891 6.84025L10.8266 6.74219L10.8767 6.76057L10.7891 6.84025Z" fill="white"/>
<path d="M10.5 6.375L10.4688 6.47306L10.5188 6.49145L10.5 6.375Z" fill="white"/>
<path d="M10.4969 6.375L10.5282 6.47306L10.4844 6.49145L10.4969 6.375Z" fill="white"/>
<path d="M10.6048 6.45312H10.4922V6.50828L10.6048 6.45312Z" fill="white"/>
<path d="M10.6033 6.45312L10.5157 6.51441L10.4844 6.47151L10.6033 6.45312Z" fill="white"/>
<path d="M10.3984 6.45312L10.486 6.51441L10.5173 6.47151L10.3984 6.45312Z" fill="white"/>
<path d="M10.3984 6.45312H10.5048V6.50828L10.3984 6.45312Z" fill="white"/>
<path d="M10.5579 6.56681L10.5266 6.46875L10.4766 6.48101L10.5579 6.56681Z" fill="white"/>
<path d="M10.5564 6.56513L10.4688 6.50384L10.5 6.46094L10.5564 6.56513Z" fill="white"/>
<path d="M10.4375 6.56513L10.5251 6.50384L10.4938 6.46094L10.4375 6.56513Z" fill="white"/>
<path d="M10.4375 6.56681L10.4688 6.46875L10.5251 6.48101L10.4375 6.56681Z" fill="white"/>
<path d="M10.1875 6.66406L10.1562 6.74986L10.2001 6.76212L10.1875 6.66406Z" fill="white"/>
<path d="M10.1922 6.66406L10.2172 6.74986L10.1797 6.76212L10.1922 6.66406Z" fill="white"/>
<path d="M10.2751 6.72656H10.1875V6.76946L10.2751 6.72656Z" fill="white"/>
<path d="M10.2735 6.72656L10.2047 6.77559L10.1797 6.73882L10.2735 6.72656Z" fill="white"/>
<path d="M10.1094 6.72656L10.1782 6.77559L10.2032 6.73882L10.1094 6.72656Z" fill="white"/>
<path d="M10.1094 6.72656H10.1907V6.76946L10.1094 6.72656Z" fill="white"/>
<path d="M10.2407 6.82799L10.2157 6.74219L10.1719 6.75445L10.2407 6.82799Z" fill="white"/>
<path d="M10.2407 6.82799L10.1719 6.77283L10.1969 6.74219L10.2407 6.82799Z" fill="white"/>
<path d="M10.1406 6.82799L10.2095 6.77283L10.1844 6.74219L10.1406 6.82799Z" fill="white"/>
<path d="M10.1406 6.82799L10.1657 6.74219L10.2095 6.75445L10.1406 6.82799Z" fill="white"/>
<path d="M10.3469 6.89844L10.3281 6.95972L10.3532 6.96585L10.3469 6.89844Z" fill="white"/>
<path d="M10.3485 6.89844L10.3672 6.95972L10.3359 6.96585L10.3485 6.89844Z" fill="white"/>
<path d="M10.4063 6.9375H10.3438V6.96814L10.4063 6.9375Z" fill="white"/>
<path d="M10.4048 6.9375L10.3547 6.97427L10.3359 6.94976L10.4048 6.9375Z" fill="white"/>
<path d="M10.2812 6.9375L10.3313 6.97427L10.3501 6.94976L10.2812 6.9375Z" fill="white"/>
<path d="M10.2812 6.9375H10.3438V6.96814L10.2812 6.9375Z" fill="white"/>
<path d="M10.3797 7.00828L10.361 6.95312L10.3359 6.95925L10.3797 7.00828Z" fill="white"/>
<path d="M10.3782 7.0066L10.3281 6.97596L10.3469 6.94531L10.3782 7.0066Z" fill="white"/>
<path d="M10.3125 7.0066L10.3626 6.97596L10.3438 6.94531L10.3125 7.0066Z" fill="white"/>
<path d="M10.3125 7.00828L10.3313 6.95312L10.3626 6.95925L10.3125 7.00828Z" fill="white"/>
<path d="M11.4204 7.91406L11.3828 8.01825L11.4391 8.03051L11.4204 7.91406Z" fill="white"/>
<path d="M11.4172 7.91406L11.4485 8.01825L11.3984 8.03051L11.4172 7.91406Z" fill="white"/>
<path d="M11.5204 7.99219H11.4141V8.04735L11.5204 7.99219Z" fill="white"/>
<path d="M11.5173 7.99219L11.4297 8.05347L11.3984 8.01057L11.5173 7.99219Z" fill="white"/>
<path d="M11.3125 7.99219L11.4001 8.05347L11.4376 8.01057L11.3125 7.99219Z" fill="white"/>
<path d="M11.3125 7.99219H11.4251V8.04735L11.3125 7.99219Z" fill="white"/>
<path d="M11.4782 8.112L11.4407 8.00781L11.3906 8.0262L11.4782 8.112Z" fill="white"/>
<path d="M11.4782 8.11032L11.3906 8.0429L11.4219 8L11.4782 8.11032Z" fill="white"/>
<path d="M11.3516 8.11032L11.4454 8.0429L11.4079 8L11.3516 8.11032Z" fill="white"/>
<path d="M11.3516 8.112L11.3891 8.00781L11.4392 8.0262L11.3516 8.112Z" fill="white"/>
<path d="M11.6797 7.67188L11.6484 7.75155L11.6922 7.76993L11.6797 7.67188Z" fill="white"/>
<path d="M11.6828 7.67188L11.7079 7.75155L11.6641 7.76993L11.6828 7.67188Z" fill="white"/>
<path d="M11.7595 7.73438H11.6719V7.77728L11.7595 7.73438Z" fill="white"/>
<path d="M11.7642 7.73438L11.6954 7.7834L11.6641 7.74663L11.7642 7.73438Z" fill="white"/>
<path d="M11.5938 7.73438L11.6626 7.7834L11.6939 7.74663L11.5938 7.73438Z" fill="white"/>
<path d="M11.5938 7.73438H11.6814V7.77728L11.5938 7.73438Z" fill="white"/>
<path d="M11.7329 7.82186L11.7016 7.74219L11.6641 7.75444L11.7329 7.82186Z" fill="white"/>
<path d="M11.7329 7.82186L11.6641 7.77283L11.6891 7.74219L11.7329 7.82186Z" fill="white"/>
<path d="M11.6328 7.82186L11.7016 7.77283L11.6704 7.74219L11.6328 7.82186Z" fill="white"/>
<path d="M11.6328 7.82186L11.6578 7.74219L11.7016 7.75444L11.6328 7.82186Z" fill="white"/>
<path d="M11.1735 7.59375L11.1484 7.67342L11.186 7.69181L11.1735 7.59375Z" fill="white"/>
<path d="M11.1766 7.59375L11.2016 7.67342L11.1641 7.69181L11.1766 7.59375Z" fill="white"/>
<path d="M11.2517 7.65625H11.1641V7.69915L11.2517 7.65625Z" fill="white"/>
<path d="M11.2579 7.65625L11.1891 7.70528L11.1641 7.66851L11.2579 7.65625Z" fill="white"/>
<path d="M11.0938 7.65625L11.1626 7.70528L11.1876 7.66851L11.0938 7.65625Z" fill="white"/>
<path d="M11.0938 7.65625H11.1814V7.69915L11.0938 7.65625Z" fill="white"/>
<path d="M11.2251 7.75155L11.2001 7.67188L11.1562 7.68413L11.2251 7.75155Z" fill="white"/>
<path d="M11.2251 7.75155L11.1562 7.70252L11.1813 7.67188L11.2251 7.75155Z" fill="white"/>
<path d="M11.125 7.75155L11.1938 7.70252L11.1688 7.67188L11.125 7.75155Z" fill="white"/>
<path d="M11.125 7.75155L11.15 7.67188L11.1938 7.68413L11.125 7.75155Z" fill="white"/>
<path d="M9.27036 7.46094L9.22656 7.58351L9.28914 7.60803L9.27036 7.46094Z" fill="white"/>
<path d="M9.26722 7.46094L9.30476 7.58351L9.24219 7.60803L9.26722 7.46094Z" fill="white"/>
<path d="M9.39703 7.55469H9.26562V7.6221L9.39703 7.55469Z" fill="white"/>
<path d="M9.39392 7.55469L9.28754 7.62823L9.25 7.5792L9.39392 7.55469Z" fill="white"/>
<path d="M9.14844 7.55469L9.25481 7.62823L9.29236 7.5792L9.14844 7.55469Z" fill="white"/>
<path d="M9.14844 7.55469H9.27984V7.6221L9.14844 7.55469Z" fill="white"/>
<path d="M9.34231 7.69457L9.30476 7.57812L9.24219 7.59651L9.34231 7.69457Z" fill="white"/>
<path d="M9.34856 7.69289L9.24219 7.61934L9.27973 7.57031L9.34856 7.69289Z" fill="white"/>
<path d="M9.1875 7.69289L9.29388 7.61934L9.25633 7.57031L9.1875 7.69289Z" fill="white"/>
<path d="M9.1875 7.69457L9.2313 7.57812L9.29388 7.59651L9.1875 7.69457Z" fill="white"/>
<path d="M10.4969 8.30469L10.4844 8.34146L10.5031 8.34759L10.4969 8.30469Z" fill="white"/>
<path d="M10.4984 8.30469L10.511 8.34146L10.4922 8.34759L10.4984 8.30469Z" fill="white"/>
<path d="M10.5438 8.33594H10.5V8.35432L10.5438 8.33594Z" fill="white"/>
<path d="M10.5422 8.33594L10.5047 8.36045L10.4922 8.34207L10.5422 8.33594Z" fill="white"/>
<path d="M10.4531 8.33594L10.4907 8.36045L10.5032 8.34207L10.4531 8.33594Z" fill="white"/>
<path d="M10.4531 8.33594H10.4969V8.35432L10.4531 8.33594Z" fill="white"/>
<path d="M10.5235 8.38052L10.511 8.34375L10.4922 8.34988L10.5235 8.38052Z" fill="white"/>
<path d="M10.5235 8.38052L10.4922 8.35601L10.4984 8.34375L10.5235 8.38052Z" fill="white"/>
<path d="M10.4688 8.38052L10.5 8.35601L10.4938 8.34375L10.4688 8.38052Z" fill="white"/>
<path d="M10.4688 8.38052L10.4813 8.34375L10.5 8.34988L10.4688 8.38052Z" fill="white"/>
</svg>
