<svg width="21" height="12" viewBox="0 0 21 12" fill="none" xmlns="http://www.w3.org/2000/svg">
<g clip-path="url(#clip0_4570_4183)">
<path d="M21 0H0V12H21V0Z" fill="#E30A17"/>
<path d="M7.2521 8.41771C6.14617 8.41771 5.2495 7.35074 5.2495 6.03463C5.2495 4.71851 6.14648 3.65154 7.2521 3.65154C7.91692 3.65154 8.50576 4.03691 8.86994 4.63017C8.44319 3.68548 7.60561 3.04297 6.64141 3.04297C5.24517 3.04297 4.11328 4.39005 4.11328 6.05143C4.11328 7.7128 5.2457 9.05988 6.64141 9.05988C7.64761 9.05988 8.51642 8.36045 8.92334 7.34777C8.56496 7.99245 7.95037 8.41771 7.2521 8.41771Z" fill="white"/>
<path d="M9.48154 4.51953L10.0486 5.45553L10.9719 5.10307L10.3991 6.03405L10.9661 6.96993L10.0451 6.60947L9.47225 7.54033L9.47584 6.3865L8.55469 6.02593L9.47795 5.67347L9.48154 4.51953Z" fill="white"/>
</g>
<defs>
<clipPath id="clip0_4570_4183">
<rect width="21" height="12" fill="white"/>
</clipPath>
</defs>
</svg>
