<svg width="21" height="12" viewBox="0 0 21 12" fill="none" xmlns="http://www.w3.org/2000/svg">
<path d="M21 0H0V12H21V0Z" fill="white"/>
<path d="M14.0611 4.33912L21.0006 0.533197V0H20.525L12.6094 4.33912H14.0611Z" fill="#BD0034"/>
<path d="M13.7344 7.89844L20.9993 11.8821V11.0854L15.1861 7.89844H13.7344Z" fill="#BD0034"/>
<path d="M0 0.913919L6.21365 4.33986H7.67163L0 0.117188V0.913919Z" fill="#BD0034"/>
<path d="M7.33999 7.89844L0 11.925V11.9985H1.32658L8.79172 7.89844H7.33999Z" fill="#BD0034"/>
<path d="M19.5697 0H12.2109V4.03269L19.5697 0Z" fill="#1A237B"/>
<path d="M8.9681 0H1.64062L8.9681 4.03269V0Z" fill="#1A237B"/>
<path d="M21.0028 4.33773V1.58594L16.0156 4.33773H21.0028Z" fill="#1A237B"/>
<path d="M21.0028 10.6196V7.89844H16.0156L21.0028 10.6196Z" fill="#1A237B"/>
<path d="M2.0625 11.9968H8.97072V8.20312L2.0625 11.9968Z" fill="#1A237B"/>
<path d="M12.2109 11.9968H19.1442L12.2109 8.20312V11.9968Z" fill="#1A237B"/>
<path d="M0 7.89844V10.7483L5.1624 7.89844H0Z" fill="#1A237B"/>
<path d="M0 4.34203H5.1624L0 1.49219V4.34203Z" fill="#1A237B"/>
<path d="M9.61144 0V5.05005H0V7.18897H9.61144V12H11.5638V7.18897H21V5.05005H11.5638V0H9.61144Z" fill="#BD0034"/>
</svg>
