<svg width="1080" height="994" viewBox="0 0 1080 994" fill="none" xmlns="http://www.w3.org/2000/svg">
<g clip-path="url(#clip0_22_2421)">
<path d="M540 993.717C838.234 993.717 1080 841.576 1080 653.9C1080 466.225 838.234 314.084 540 314.084C241.766 314.084 0 466.225 0 653.9C0 841.576 241.766 993.717 540 993.717Z" fill="#F5F5F5"/>
<path d="M727.881 919.255C793.649 919.255 846.965 888.477 846.965 850.51C846.965 812.543 793.649 781.766 727.881 781.766C662.113 781.766 608.797 812.543 608.797 850.51C608.797 888.477 662.113 919.255 727.881 919.255Z" fill="#E0E0E0"/>
<path opacity="0.3" d="M59.9616 354.366L60.4211 354.621L59.834 354.314L58.7363 353.676L59.9616 354.366Z" fill="black"/>
<path d="M51.5636 347.984C51.4743 348.284 51.4743 348.603 51.5636 348.903C51.4606 348.605 51.4606 348.281 51.5636 347.984L53.2484 342.368L51.5636 347.984Z" fill="#D91F25"/>
<path opacity="0.4" d="M51.5636 347.984C51.4743 348.284 51.4743 348.603 51.5636 348.903C51.4606 348.605 51.4606 348.281 51.5636 347.984L53.2484 342.368L51.5636 347.984Z" fill="white"/>
<path d="M209.244 316.33C209.244 318.398 209.244 320.491 208.938 322.661C208.937 322.957 208.997 323.25 209.111 323.523C209.226 323.796 209.394 324.043 209.606 324.25C209.818 324.457 210.068 324.619 210.344 324.728C210.619 324.836 210.913 324.889 211.209 324.882L224.764 325.648C225.11 325.639 225.453 325.718 225.76 325.877L209.244 316.33Z" fill="#D91F25"/>
<path d="M163.45 406.543C162.888 405.65 161.407 405.701 160.08 406.543C158.753 407.385 156.889 408.611 155.332 409.555L171.95 419.204C171.786 419.134 171.645 419.019 171.542 418.873L163.45 406.543Z" fill="#D91F25"/>
<path d="M120.206 415.248C117.696 414.3 115.359 412.946 113.288 411.24C112.721 410.917 112.06 410.801 111.417 410.913C110.774 411.025 110.19 411.357 109.766 411.853L93.6325 426.607C93.1561 427.069 92.5328 427.349 91.8711 427.399L117.398 442.255C117.138 442.105 116.933 441.875 116.814 441.599C116.695 441.323 116.667 441.016 116.734 440.724L121.84 418.081C121.942 417.492 121.835 416.886 121.536 416.368C121.238 415.851 120.767 415.454 120.206 415.248V415.248Z" fill="#D91F25"/>
<path d="M167.176 374.047C161.712 380.269 154.65 384.878 146.754 387.372L145.886 387.576L145.274 387.729L143.87 387.959L142.236 388.112H140.73C137.533 388.141 134.401 387.203 131.746 385.422C129.091 383.641 127.035 381.1 125.848 378.131C124.696 375.496 123.963 372.697 123.678 369.835C124.903 369.273 126.23 368.61 127.43 367.895C144.967 357.684 159.16 333.178 159.16 312.935C159.16 311.403 159.16 309.948 158.982 308.621C162.481 306.968 166.319 306.155 170.188 306.247H170.877H171.439H172.052C174.801 306.648 177.397 307.765 179.579 309.485C181.761 311.206 183.452 313.469 184.483 316.049C191.044 331.085 183.36 356.969 167.176 374.047Z" fill="#D91F25"/>
<path opacity="0.4" d="M167.176 374.047C161.712 380.269 154.65 384.878 146.754 387.372L145.886 387.576L145.274 387.729L143.87 387.959L142.236 388.112H140.73C137.533 388.141 134.401 387.203 131.746 385.422C129.091 383.641 127.035 381.1 125.848 378.131C124.696 375.496 123.963 372.697 123.678 369.835C124.903 369.273 126.23 368.61 127.43 367.895C144.967 357.684 159.16 333.178 159.16 312.935C159.16 311.403 159.16 309.948 158.982 308.621C162.481 306.968 166.319 306.155 170.188 306.247H170.877H171.439H172.052C174.801 306.648 177.397 307.765 179.579 309.485C181.761 311.206 183.452 313.469 184.483 316.049C191.044 331.085 183.36 356.969 167.176 374.047Z" fill="black"/>
<path d="M225.887 325.928C225.588 325.769 225.256 325.681 224.917 325.673L211.362 324.907C211.068 324.918 210.774 324.868 210.499 324.763C210.223 324.657 209.972 324.497 209.76 324.292C209.548 324.087 209.38 323.842 209.264 323.57C209.149 323.299 209.09 323.007 209.09 322.712C209.269 320.568 209.371 318.449 209.397 316.381C209.424 314.131 209.322 311.881 209.09 309.642C209.142 308.178 209.671 306.77 210.596 305.634L225.708 287.331C226.159 286.83 226.479 286.225 226.64 285.571C226.8 284.916 226.796 284.232 226.627 283.579L219.454 267.676C219.358 267.468 219.197 267.298 218.995 267.191V267.191C218.408 266.884 217.514 267.191 216.672 267.905L200.36 282.558C199.929 283.045 199.344 283.369 198.703 283.476C198.061 283.583 197.403 283.466 196.837 283.145C194.764 281.456 192.438 280.104 189.945 279.137C189.384 278.931 188.913 278.534 188.615 278.016C188.316 277.499 188.209 276.893 188.311 276.304L193.417 253.687C193.495 253.384 193.469 253.064 193.344 252.777C193.219 252.49 193.002 252.253 192.728 252.104C192.263 251.867 191.74 251.77 191.221 251.823L175.446 253.406C174.697 253.499 173.985 253.783 173.377 254.23C172.77 254.677 172.286 255.272 171.974 255.959L163.422 278.933C162.684 280.404 161.469 281.583 159.976 282.277C156.571 283.901 153.301 285.796 150.199 287.944C148.872 288.838 147.391 288.889 146.804 287.944L138.712 275.589C138.151 274.721 136.849 274.9 135.802 275.997L118.469 294.3C117.967 294.788 117.584 295.385 117.35 296.045C117.115 296.704 117.035 297.409 117.116 298.104L121.941 314.467C122.157 315.84 121.847 317.244 121.073 318.398C118.147 322.853 115.48 327.473 113.083 332.234C112.244 333.627 110.9 334.642 109.33 335.067L94.4737 338.641C93.739 338.814 93.0545 339.156 92.4742 339.638C91.8939 340.121 91.4336 340.732 91.1297 341.423L83.6502 366.567C83.5718 366.843 83.5608 367.133 83.6182 367.414C83.6755 367.695 83.7995 367.958 83.9797 368.18C84.1599 368.403 84.391 368.579 84.6535 368.694C84.9161 368.809 85.2023 368.859 85.4882 368.839L99.0686 369.605C99.3633 369.595 99.657 369.644 99.9323 369.75C100.208 369.856 100.459 370.016 100.671 370.22C100.883 370.425 101.051 370.671 101.166 370.942C101.281 371.214 101.341 371.506 101.341 371.801C100.932 376.148 100.932 380.523 101.341 384.87C101.318 386.328 100.796 387.734 99.8599 388.853L84.7479 407.181C84.2928 407.685 83.9705 408.294 83.81 408.954C83.6496 409.613 83.6561 410.303 83.8289 410.959L91.0021 426.837C91.0899 427.042 91.2423 427.212 91.436 427.322V427.322C91.6044 427.426 91.7995 427.48 91.9976 427.475V427.475C92.6705 427.42 93.3028 427.131 93.7845 426.658L109.764 411.801C110.198 411.318 110.783 410.997 111.423 410.89C112.063 410.784 112.721 410.898 113.287 411.214C115.37 412.902 117.705 414.254 120.205 415.222C120.761 415.433 121.226 415.832 121.52 416.349C121.814 416.866 121.917 417.47 121.813 418.056L116.708 440.673C116.634 440.969 116.659 441.281 116.779 441.562C116.898 441.843 117.107 442.078 117.372 442.23C117.82 442.484 118.344 442.575 118.852 442.485L134.628 440.928C135.361 440.852 136.064 440.592 136.671 440.173C137.278 439.753 137.769 439.188 138.1 438.528L146.677 415.554C147.437 414.099 148.645 412.926 150.123 412.21C151.782 411.444 153.467 410.551 155.228 409.657C156.99 408.764 158.419 407.717 160.002 406.645C161.584 405.573 162.81 405.675 163.371 406.645L171.463 419C171.568 419.152 171.708 419.274 171.872 419.358C172.51 419.766 173.531 419.485 174.425 418.592L191.783 400.263C192.278 399.777 192.655 399.183 192.885 398.528C193.115 397.873 193.192 397.175 193.11 396.485L188.286 380.122C188.079 378.746 188.398 377.343 189.179 376.191C192.117 371.739 194.777 367.11 197.144 362.33C197.998 360.951 199.351 359.954 200.922 359.548L215.753 355.974C216.493 355.804 217.181 355.46 217.763 354.972C218.344 354.484 218.801 353.865 219.097 353.166L226.602 328.022C226.761 327.646 226.776 327.225 226.644 326.839C226.512 326.452 226.243 326.128 225.887 325.928V325.928ZM146.753 387.347L145.885 387.576L145.247 387.704C144.784 387.807 144.315 387.884 143.843 387.934L142.209 388.112H140.729C137.529 388.135 134.398 387.192 131.743 385.407C129.088 383.622 127.033 381.077 125.847 378.106C124.695 375.479 123.963 372.688 123.677 369.835C123.5 368.31 123.415 366.775 123.421 365.24C123.421 350.894 130.875 333.153 143.026 320.338C146.532 316.548 150.564 313.281 154.998 310.638C156.278 309.867 157.608 309.184 158.981 308.595C162.485 306.955 166.319 306.143 170.187 306.221H170.851H171.438H172.051C174.802 306.627 177.398 307.749 179.58 309.474C181.762 311.198 183.452 313.466 184.482 316.049C191.17 330.881 183.487 356.74 167.303 373.817C161.833 380.137 154.72 384.82 146.753 387.347Z" fill="#D91F25"/>
<path opacity="0.2" d="M112.089 333.229C111.27 334.061 110.25 334.668 109.128 334.99L94.2715 338.564C93.2098 338.847 92.2579 339.443 91.5401 340.275L59.5547 321.895C60.2674 320.988 61.2661 320.349 62.3882 320.083L77.2194 316.483C78.3292 316.208 79.3382 315.624 80.1295 314.799V314.799L112.089 333.229Z" fill="black"/>
<path opacity="0.3" d="M121.815 314.799L89.906 296.419C89.9459 296.225 89.9459 296.026 89.906 295.832L85.0558 279.495C84.8954 278.962 84.8954 278.394 85.0558 277.861L109.511 291.824L117.169 296.164C116.949 296.742 116.896 297.37 117.016 297.976L121.84 314.314C121.859 314.476 121.85 314.639 121.815 314.799Z" fill="black"/>
<path opacity="0.3" d="M172.639 254.631C172.267 254.959 171.979 255.37 171.797 255.831L163.22 278.805L131.285 260.375C131.285 260.375 131.285 260.375 131.285 260.222L139.862 237.247C140.036 236.803 140.317 236.409 140.679 236.099L172.639 254.631Z" fill="black"/>
<path opacity="0.3" d="M218.663 267.012C218.256 266.939 217.837 266.974 217.448 267.112C217.058 267.251 216.712 267.489 216.443 267.803L200.361 282.532C199.926 283.022 199.338 283.349 198.694 283.46C198.049 283.572 197.385 283.46 196.812 283.145C194.742 281.452 192.415 280.099 189.92 279.137C189.354 278.93 188.879 278.53 188.58 278.006C188.281 277.483 188.177 276.871 188.286 276.278L193.392 253.712C193.471 253.406 193.447 253.081 193.322 252.79C193.197 252.499 192.979 252.258 192.702 252.104V252.104C192.243 251.849 189.869 250.496 186.627 248.581C186.829 248.584 187.029 248.627 187.214 248.709C187.343 248.759 187.463 248.828 187.571 248.913L218.663 267.012Z" fill="black"/>
<path opacity="0.3" d="M225.889 325.877C225.582 325.718 225.239 325.639 224.893 325.648L211.338 324.882C211.042 324.889 210.748 324.836 210.473 324.728C210.197 324.619 209.946 324.457 209.735 324.25C209.523 324.043 209.355 323.796 209.24 323.523C209.125 323.25 209.066 322.957 209.066 322.661C209.245 320.491 209.373 318.398 209.373 316.33L225.889 325.877Z" fill="black"/>
<path opacity="0.4" d="M171.95 419.23L155.332 409.581C156.889 408.636 158.497 407.641 160.08 406.568C161.663 405.496 162.888 405.598 163.45 406.568L171.542 418.924C171.648 419.06 171.789 419.166 171.95 419.23V419.23Z" fill="black"/>
<path opacity="0.4" d="M121.815 418.081L116.709 440.724C116.641 441.016 116.669 441.323 116.789 441.599C116.908 441.875 117.113 442.105 117.373 442.255L91.8457 427.399C92.5074 427.349 93.1307 427.069 93.6071 426.607L109.766 411.802C110.19 411.306 110.774 410.974 111.417 410.862C112.06 410.75 112.722 410.866 113.288 411.189C115.359 412.895 117.696 414.249 120.206 415.197C120.773 415.409 121.245 415.815 121.54 416.344C121.834 416.872 121.932 417.488 121.815 418.081V418.081Z" fill="black"/>
<path opacity="0.2" d="M100.806 386.606C100.54 387.396 100.134 388.131 99.606 388.776L84.494 407.105C84.0541 407.654 83.7325 408.288 83.5495 408.968L51.6406 390.512C51.8091 389.827 52.1321 389.189 52.5851 388.648L67.7227 370.32C68.2292 369.679 68.6182 368.953 68.8714 368.176L100.806 386.606Z" fill="black"/>
<path opacity="0.1" d="M163.169 278.907C162.411 280.316 161.221 281.444 159.774 282.124C156.368 283.739 153.099 285.625 149.997 287.765C148.669 288.684 147.189 288.761 146.602 287.765L138.535 275.41C138.431 275.259 138.291 275.136 138.127 275.053H137.999L122.836 266.297C124.493 265.36 126.197 264.508 127.941 263.744L128.528 263.413C129.122 263.044 129.67 262.607 130.162 262.111C130.371 261.902 130.567 261.68 130.749 261.447C130.884 261.313 130.996 261.158 131.081 260.987L131.311 260.553L163.169 278.907Z" fill="black"/>
<path opacity="0.4" d="M101.112 384.768C101.144 385.394 101.048 386.019 100.831 386.606L68.8965 368.176C69.121 367.59 69.2252 366.965 69.2028 366.338C68.9925 364.098 68.8987 361.848 68.922 359.599L84.2383 368.405C84.5666 368.59 84.9339 368.695 85.3104 368.712L98.8908 369.478C99.1876 369.467 99.4835 369.517 99.7605 369.624C100.037 369.732 100.29 369.894 100.502 370.102C100.715 370.309 100.883 370.558 100.996 370.832C101.11 371.107 101.166 371.401 101.163 371.698C100.747 376.044 100.73 380.419 101.112 384.768V384.768Z" fill="black"/>
<path opacity="0.1" d="M121.815 314.799C121.855 316.008 121.526 317.202 120.87 318.219C117.934 322.668 115.266 327.288 112.88 332.055C112.673 332.443 112.406 332.796 112.089 333.101L80.1543 314.799C80.3356 314.636 80.4906 314.447 80.6138 314.237C80.771 314.091 80.9007 313.918 80.9967 313.726C83.3538 308.941 86.014 304.311 88.9611 299.865C89.1189 299.635 89.2475 299.387 89.344 299.125C89.4424 298.968 89.5115 298.795 89.5482 298.614C89.567 298.53 89.567 298.443 89.5482 298.359C89.5482 298.359 89.5482 298.359 89.5482 298.206C89.6235 297.982 89.6748 297.751 89.7014 297.517C89.7755 297.18 89.7755 296.832 89.7014 296.496L121.815 314.799Z" fill="black"/>
<path opacity="0.3" d="M80.6138 314.237C80.4906 314.447 80.3356 314.636 80.1543 314.799V314.799C80.3216 314.623 80.4752 314.436 80.6138 314.237Z" fill="black"/>
<path opacity="0.4" d="M91.1822 427.245L84.6728 423.493L83.4475 422.778L72.9814 416.728C72.0114 416.167 71.0669 415.58 70.1479 415.069L59.401 408.866C59.3008 408.819 59.2132 408.749 59.1457 408.662C59.066 408.568 58.9974 408.465 58.9415 408.355L51.7429 392.452C51.6091 392.02 51.6091 391.557 51.7429 391.125C51.7429 390.946 51.7429 390.742 51.7429 390.563L83.6517 409.019C83.4317 409.638 83.4317 410.314 83.6517 410.934L90.8248 426.786C90.8981 426.97 91.022 427.129 91.1822 427.245V427.245Z" fill="black"/>
<path opacity="0.3" d="M59.5527 321.895C59.3165 322.183 59.1348 322.512 59.0166 322.865L58.0976 326.005L53.222 342.419L51.5627 348.035C51.4906 348.268 51.4692 348.514 51.5 348.756C51.5308 348.998 51.6131 349.231 51.7414 349.439C51.8414 349.598 51.9714 349.737 52.1243 349.847L52.3796 350.026L54.9323 351.455L55.6215 351.864L57.6126 353.013L58.6848 353.651L59.9101 354.34L60.3696 354.595L61.6714 355.361L68.8956 359.522L84.2119 368.329C83.8994 368.139 83.6609 367.849 83.5356 367.505C83.4103 367.162 83.4057 366.786 83.5226 366.44L90.0831 344.333L91.0021 341.27C91.1314 340.875 91.3398 340.51 91.6147 340.198L59.5527 321.895Z" fill="black"/>
<path opacity="0.5" d="M122.834 266.297L106.267 256.673C106.047 256.557 105.802 256.496 105.552 256.495C105.197 256.515 104.85 256.61 104.534 256.773C104.217 256.935 103.938 257.162 103.714 257.439V257.439L93.3504 268.416L86.3815 275.768C85.8106 276.386 85.3912 277.129 85.1562 277.937L109.509 291.824L117.167 296.164C117.416 295.42 117.826 294.74 118.367 294.173L118.597 293.917L135.7 275.844C135.975 275.486 136.348 275.215 136.774 275.065C137.2 274.916 137.661 274.894 138.099 275.002L122.834 266.297Z" fill="white"/>
<path opacity="0.5" d="M192.423 252.027C191.985 251.856 191.511 251.795 191.044 251.849L175.243 253.431C174.283 253.54 173.386 253.961 172.69 254.631L140.756 236.201C141.457 235.53 142.349 235.093 143.309 234.95L159.11 233.367C159.648 233.301 160.194 233.409 160.667 233.673C160.667 233.673 162.428 234.669 164.93 236.226L167.023 237.426L180.553 245.263L183.897 247.228L186.449 248.581C189.589 250.419 191.963 251.772 192.423 252.027Z" fill="white"/>
<path d="M577.627 47.7597C576.938 42.6543 572.802 40.7653 567.875 43.6243L296.063 200.539C293.19 202.421 290.799 204.952 289.083 207.927C287.367 210.902 286.374 214.239 286.184 217.668V817.555C286.184 823.375 289.936 826.004 294.812 823.885C291.862 825.128 288.678 825.717 285.479 825.611C282.279 825.505 279.141 824.707 276.279 823.273L264.971 816.738C262.083 814.869 259.68 812.342 257.958 809.365C256.236 806.387 255.245 803.044 255.066 799.609V199.748C255.245 196.313 256.236 192.97 257.958 189.992C259.68 187.015 262.083 184.488 264.971 182.619L536.732 25.6788C539.8 24.1305 543.188 23.324 546.624 23.324C550.06 23.324 553.448 24.1305 556.516 25.6788L567.952 32.2137C570.585 33.9597 572.812 36.2516 574.481 38.9339C576.15 41.6162 577.223 44.6262 577.627 47.7597V47.7597Z" fill="#37474F"/>
<path d="M567.952 43.6243L296.063 200.539C293.19 202.421 290.799 204.952 289.083 207.927C287.367 210.902 286.374 214.239 286.184 217.668V817.555C286.184 823.86 290.625 826.412 296.063 823.273L567.952 666.255C570.821 664.372 573.208 661.841 574.92 658.866C576.631 655.89 577.62 652.554 577.805 649.127V49.3168C577.728 43.0372 573.312 40.4845 567.952 43.6243ZM563.587 592.635C563.587 598.022 559.808 601.468 555.111 604.174L307.984 746.844C303.312 749.55 299.509 747.355 299.509 741.943V274.976C299.669 272.032 300.519 269.167 301.991 266.613C303.464 264.059 305.517 261.887 307.984 260.273L555.111 117.627C559.808 114.896 563.587 117.091 563.587 122.477V592.635Z" fill="#455A64"/>
<path d="M294.812 823.783C291.862 825.026 288.678 825.615 285.479 825.509C282.279 825.403 279.141 824.605 276.279 823.171L264.971 816.636C262.085 814.766 259.682 812.238 257.961 809.261C256.239 806.284 255.247 802.941 255.066 799.507V199.748C255.18 196.293 256.183 192.926 257.977 189.971L289.094 207.84C287.317 210.793 286.316 214.147 286.184 217.591V817.478C286.184 823.273 289.936 825.902 294.812 823.783Z" fill="#263238"/>
<path d="M431.969 137.947C435.619 135.828 438.581 137.538 438.581 141.776C438.455 144.071 437.791 146.304 436.642 148.296C435.494 150.287 433.893 151.98 431.969 153.238C428.293 155.356 425.332 153.646 425.332 149.409C425.455 147.11 426.12 144.873 427.274 142.88C428.427 140.888 430.036 139.198 431.969 137.947V137.947Z" fill="#263238"/>
<path d="M412.823 171.03C426.276 163.602 450.297 149.306 463.571 141.495C465.843 140.168 467.655 141.087 467.655 143.537C467.55 144.913 467.127 146.244 466.418 147.427C465.709 148.61 464.734 149.612 463.571 150.353L412.721 179.709C410.449 181.011 408.611 180.092 408.611 177.642C408.727 176.281 409.171 174.969 409.904 173.818C410.638 172.666 411.639 171.71 412.823 171.03V171.03Z" fill="#263238"/>
<path d="M399.983 178.458C402.025 177.284 403.684 178.229 403.684 180.603C403.631 181.911 403.267 183.188 402.624 184.329C401.98 185.469 401.075 186.441 399.983 187.163C397.915 188.337 396.256 187.393 396.256 185.019C396.31 183.708 396.677 182.428 397.325 181.287C397.973 180.146 398.884 179.176 399.983 178.458V178.458Z" fill="#263238"/>
<path d="M427.349 730.303C425.695 730.319 424.065 729.896 422.627 729.078C419.283 727.138 417.521 723.155 417.521 717.871C417.84 712.244 419.478 706.77 422.303 701.892C425.127 697.014 429.06 692.869 433.782 689.791C438.352 687.239 442.717 686.754 446.086 688.694C449.456 690.634 451.192 694.616 451.192 699.9C450.872 705.525 449.236 710.995 446.416 715.872C443.597 720.75 439.671 724.897 434.956 727.98C432.664 729.399 430.043 730.199 427.349 730.303V730.303ZM441.262 689.97C439.025 690.068 436.852 690.745 434.956 691.936C430.586 694.773 426.945 698.599 424.329 703.105C421.712 707.611 420.194 712.669 419.895 717.871C419.895 722.211 421.299 725.529 423.827 726.857C426.354 728.184 429.851 727.929 433.604 725.759C437.951 722.913 441.57 719.086 444.168 714.586C446.767 710.085 448.272 705.038 448.562 699.849C448.562 695.51 447.158 692.319 444.631 690.838C443.591 690.298 442.433 690.026 441.262 690.047V689.97Z" fill="#E6E6E6"/>
<path d="M563.509 122.478V592.661C563.35 595.598 562.499 598.456 561.026 601.002C559.554 603.548 557.501 605.711 555.034 607.313L307.907 749.984C303.235 752.537 299.432 750.52 299.432 745.109V715.778L523.84 586.228C528.537 583.522 532.315 580.102 532.315 574.715V130.748L555.034 117.627C559.731 114.921 563.509 117.117 563.509 122.478Z" fill="#37474F"/>
<path d="M555.036 117.627L532.215 130.748V574.715C532.139 576.695 531.57 578.625 530.557 580.328C529.545 582.031 528.123 583.454 526.42 584.467L559.248 603.433C561.747 600.377 563.204 596.603 563.409 592.661V122.478C563.511 117.117 559.733 114.921 555.036 117.627Z" fill="#263238"/>
<path d="M322.024 599.196L307.882 591.027C307.602 590.911 307.368 590.705 307.219 590.44L304.666 585.896L313.064 581.046L312.809 581.786L322.024 599.196Z" fill="#E0E0E0"/>
<path d="M311.738 581.735L321.541 598.685C321.687 598.904 321.891 599.079 322.129 599.191C322.367 599.303 322.631 599.348 322.893 599.322C323.155 599.296 323.405 599.199 323.617 599.042C323.828 598.885 323.993 598.673 324.093 598.43L334.457 568.563L311.738 581.735Z" fill="#EBEBEB"/>
<path d="M357.917 491.293C357.779 488.91 357.078 486.594 355.871 484.535C354.664 482.476 352.986 480.733 350.974 479.448L345.409 476.232C343.284 475.171 340.942 474.619 338.568 474.619C336.193 474.619 333.851 475.171 331.726 476.232L220.964 540.05C218.971 541.345 217.313 543.094 216.124 545.152C214.935 547.21 214.25 549.521 214.123 551.894V608.054C214.254 610.427 214.941 612.735 216.13 614.793C217.318 616.851 218.974 618.6 220.964 619.898L226.555 623.115C228.672 624.185 231.011 624.742 233.383 624.742C235.755 624.742 238.095 624.185 240.212 623.115L351.612 558.761C357.764 555.264 357.815 551.741 357.815 547.376L357.917 491.293Z" fill="#EBEBEB"/>
<path d="M214.25 608.054C214.376 610.425 215.058 612.733 216.243 614.79C217.427 616.848 219.079 618.598 221.066 619.898L226.656 623.115C228.584 624.084 230.695 624.635 232.85 624.732C235.006 624.829 237.158 624.469 239.164 623.676C235.948 624.902 233.497 623.064 233.497 619.158V562.998C233.579 560.62 234.264 558.301 235.489 556.259L216.241 545.155C215.006 547.192 214.32 549.514 214.25 551.894V608.054Z" fill="#E0E0E0"/>
<path d="M357.686 489.353C356.894 486.443 354.24 485.524 351.074 487.336L240.312 551.154C238.296 552.409 236.642 554.169 235.513 556.259L216.266 545.155C217.411 543.069 219.072 541.311 221.09 540.05L331.801 476.232C333.929 475.167 336.276 474.613 338.655 474.613C341.035 474.613 343.381 475.167 345.509 476.232L350.972 479.448C352.709 480.552 354.202 482 355.357 483.704C356.511 485.408 357.304 487.33 357.686 489.353V489.353Z" fill="#FAFAFA"/>
<path d="M251.878 567.134L331.012 521.185C333.284 519.858 335.147 520.47 335.147 522.538C334.98 523.81 334.52 525.026 333.802 526.089C333.084 527.152 332.129 528.034 331.012 528.664L251.878 574.613C249.58 575.941 247.717 575.328 247.717 573.26C247.888 571.987 248.354 570.77 249.076 569.707C249.798 568.644 250.757 567.763 251.878 567.134V567.134Z" fill="#455A64"/>
<path d="M251.878 585.922L331.012 539.973C333.284 538.646 335.147 539.233 335.147 541.3C334.976 542.575 334.514 543.792 333.797 544.859C333.08 545.926 332.127 546.813 331.012 547.453L251.878 593.401C249.58 594.729 247.717 594.116 247.717 592.048C247.888 590.775 248.354 589.558 249.076 588.495C249.798 587.432 250.757 586.551 251.878 585.922V585.922Z" fill="#455A64"/>
<path d="M140.987 619.898L126.845 611.73C126.564 611.614 126.331 611.407 126.182 611.143L123.629 606.599L132.027 601.749L131.772 602.489L140.987 619.898Z" fill="#D91F25"/>
<path opacity="0.2" d="M140.987 619.898L126.845 611.73C126.564 611.614 126.331 611.407 126.182 611.143L123.629 606.599L132.027 601.749L131.772 602.489L140.987 619.898Z" fill="black"/>
<path d="M130.699 602.438L140.476 619.388C140.628 619.599 140.832 619.767 141.069 619.874C141.306 619.981 141.567 620.024 141.826 619.998C142.085 619.972 142.332 619.878 142.543 619.726C142.755 619.574 142.922 619.37 143.029 619.133L153.24 589.266L130.699 602.438Z" fill="#D91F25"/>
<path d="M246.797 462.983C246.67 460.61 245.985 458.299 244.796 456.241C243.607 454.183 241.948 452.434 239.956 451.139L234.391 447.922C232.273 446.84 229.928 446.276 227.55 446.276C225.171 446.276 222.826 446.84 220.708 447.922L89.2182 523.865C87.2254 525.161 85.567 526.909 84.3781 528.968C83.1892 531.026 82.5035 533.336 82.377 535.71V600.242C82.5035 602.616 83.1892 604.926 84.3781 606.985C85.567 609.043 87.2254 610.791 89.2182 612.087L94.7831 615.303C96.9012 616.386 99.2458 616.95 101.624 616.95C104.003 616.95 106.348 616.386 108.466 615.303L240.594 538.901C246.746 535.404 246.797 531.881 246.797 527.516V462.983Z" fill="#D91F25"/>
<path opacity="0.2" d="M82.377 600.242C82.5035 602.616 83.1892 604.926 84.3781 606.985C85.567 609.043 87.2254 610.791 89.2182 612.087L94.7831 615.303C96.709 616.277 98.8189 616.833 100.975 616.934C103.13 617.035 105.283 616.679 107.291 615.891C104.075 617.09 101.624 615.252 101.624 611.347V546.814C101.707 544.432 102.402 542.111 103.641 540.075L84.3936 528.971C83.1541 531.007 82.4596 533.328 82.377 535.71V600.242Z" fill="black"/>
<path opacity="0.4" d="M246.566 461.043C245.775 458.133 243.12 457.214 239.955 459.027L108.465 534.995C106.429 536.235 104.763 537.998 103.64 540.101L84.3926 528.971C85.5449 526.89 87.2045 525.134 89.2172 523.865L220.784 447.922C222.912 446.858 225.258 446.303 227.638 446.303C230.017 446.303 232.364 446.858 234.492 447.922L240.057 451.139C241.756 452.263 243.21 453.72 244.329 455.423C245.448 457.125 246.209 459.037 246.566 461.043V461.043Z" fill="white"/>
<path d="M120.005 564.964L191.097 523.789C193.395 522.461 195.258 523.074 195.258 525.142C195.087 526.415 194.622 527.632 193.899 528.695C193.177 529.758 192.218 530.639 191.097 531.268L120.005 572.418C117.733 573.745 115.869 573.133 115.869 571.065C116.044 569.799 116.507 568.59 117.225 567.532C117.942 566.474 118.893 565.595 120.005 564.964Z" fill="white"/>
<path d="M120.005 583.726L219.866 525.78C222.138 524.453 224.002 525.065 224.002 527.133C223.835 528.405 223.374 529.621 222.657 530.684C221.939 531.747 220.984 532.629 219.866 533.259L120.005 591.206C117.733 592.533 115.869 591.921 115.869 589.853C116.04 588.582 116.502 587.368 117.219 586.305C117.937 585.243 118.89 584.36 120.005 583.726Z" fill="white"/>
<path d="M120.005 545.232L219.866 487.285C222.138 485.958 224.002 486.57 224.002 488.638C223.831 489.909 223.369 491.123 222.652 492.186C221.934 493.248 220.981 494.131 219.866 494.765L120.005 552.711C117.733 554.039 115.869 553.426 115.869 551.358C116.036 550.086 116.497 548.871 117.214 547.807C117.932 546.744 118.887 545.862 120.005 545.232V545.232Z" fill="white"/>
<path d="M1026.6 130.697L1016.23 124.724C1015.48 124.374 1014.65 124.232 1013.82 124.313C1013 124.394 1012.21 124.694 1011.54 125.183L786.312 255.218C784.378 256.475 782.769 258.17 781.616 260.166C780.462 262.163 779.797 264.403 779.675 266.706V383.084C779.582 383.919 779.721 384.763 780.076 385.524C780.432 386.285 780.991 386.933 781.691 387.398V387.398L791.902 393.345V383.722L1011.44 256.98C1013.36 255.719 1014.97 254.023 1016.12 252.027C1017.28 250.032 1017.94 247.793 1018.07 245.493V134.986L1026.6 130.697Z" fill="#E0E0E0"/>
<path d="M800.403 271.02L1018.17 145.299V135.088L1026.6 130.799L1016.23 124.826C1015.48 124.476 1014.65 124.334 1013.82 124.415C1013 124.496 1012.21 124.796 1011.54 125.285L786.312 255.32C784.343 256.535 782.724 258.242 781.615 260.273L800.403 271.02Z" fill="#FAFAFA"/>
<path d="M796.676 261.192L1021.9 131.157C1025.58 129.038 1028.54 130.774 1028.54 134.986V251.389C1028.41 253.691 1027.75 255.931 1026.59 257.927C1025.44 259.923 1023.83 261.619 1021.9 262.876L796.676 392.911C793 395.005 790.039 393.294 790.039 389.082V272.679C790.17 270.378 790.838 268.141 791.991 266.146C793.144 264.151 794.748 262.454 796.676 261.192V261.192Z" fill="#F5F5F5"/>
<path d="M808.162 272.526L875.63 233.571C879.893 231.019 883.288 233.112 883.288 238.039V315.947C883.154 318.626 882.39 321.234 881.06 323.563C879.729 325.891 877.869 327.873 875.63 329.349L808.162 368.405C803.873 370.958 800.504 368.865 800.504 363.938V285.927C800.641 283.25 801.405 280.642 802.735 278.314C804.065 275.986 805.924 274.003 808.162 272.526V272.526Z" fill="#D91F25"/>
<path d="M841.323 269.667C848.471 265.557 854.265 268.901 854.265 277.172C854.021 281.665 852.722 286.038 850.473 289.936C848.225 293.834 845.09 297.148 841.323 299.61C834.15 303.745 828.355 300.401 828.355 292.131C828.597 287.63 829.897 283.25 832.151 279.347C834.404 275.443 837.547 272.127 841.323 269.667V269.667Z" fill="#FAFAFA"/>
<path d="M866.851 313.88C866.851 300.299 857.329 294.275 845.561 301.116L838.21 305.354C826.467 312.144 816.92 328.66 816.92 342.24V345.891L866.851 317.07V313.88Z" fill="#FAFAFA"/>
<path d="M909.633 219.94L1002.27 166.333C1005.31 164.572 1007.78 165.822 1007.78 169.141C1007.65 170.995 1007.08 172.791 1006.13 174.384C1005.17 175.977 1003.85 177.32 1002.27 178.305L909.633 231.912C906.57 233.673 904.119 232.423 904.119 229.104C904.251 227.25 904.819 225.454 905.778 223.861C906.736 222.268 908.057 220.925 909.633 219.94V219.94Z" fill="#E0E0E0"/>
<path d="M909.633 243.884L1002.27 190.277C1005.31 188.516 1007.78 189.767 1007.78 193.085C1007.65 194.943 1007.09 196.744 1006.13 198.341C1005.17 199.938 1003.85 201.286 1002.27 202.275L909.633 255.754C906.57 257.516 904.119 256.265 904.119 252.946C904.267 251.11 904.842 249.334 905.8 247.76C906.757 246.187 908.07 244.859 909.633 243.884Z" fill="#E0E0E0"/>
<path d="M909.633 267.829L1002.27 214.349C1005.31 212.588 1007.78 213.839 1007.78 217.132C1007.65 218.99 1007.09 220.791 1006.13 222.388C1005.17 223.985 1003.85 225.333 1002.27 226.322L909.633 279.801C906.57 281.562 904.119 280.311 904.119 276.993C904.251 275.139 904.819 273.342 905.778 271.75C906.736 270.157 908.057 268.814 909.633 267.829V267.829Z" fill="#E0E0E0"/>
<path d="M909.633 291.824L1002.27 238.217C1005.31 236.456 1007.78 237.707 1007.78 241C1007.65 242.858 1007.09 244.658 1006.13 246.256C1005.17 247.853 1003.85 249.2 1002.27 250.19L909.633 303.669C906.57 305.43 904.119 304.179 904.119 300.861C904.27 299.029 904.848 297.258 905.805 295.689C906.763 294.12 908.073 292.797 909.633 291.824Z" fill="#E0E0E0"/>
<path opacity="0.2" d="M649.103 576.196C649.103 581.582 645.325 585.028 640.628 587.734L393.5 730.405C388.829 733.085 385.025 730.916 385.025 725.504V258.639C385.185 255.695 386.036 252.83 387.508 250.276C388.98 247.721 391.033 245.549 393.5 243.935L640.628 101.29C645.325 98.5586 649.103 100.754 649.103 106.14V576.196Z" fill="#D91F25"/>
<path d="M389.722 732.83C388.72 732.849 387.731 732.593 386.863 732.09C385.799 731.374 384.949 730.384 384.4 729.225C383.852 728.066 383.627 726.78 383.749 725.504V258.639C383.895 255.469 384.799 252.379 386.384 249.63C387.97 246.881 390.191 244.552 392.862 242.838L639.99 100.167C640.996 99.3418 642.229 98.8424 643.525 98.735C644.821 98.6276 646.12 98.9174 647.247 99.5658C648.375 100.214 649.279 101.19 649.838 102.365C650.398 103.539 650.587 104.856 650.38 106.14V576.196C650.38 582.833 645.274 586.585 641.266 588.96L394.139 731.63C392.797 732.41 391.274 732.824 389.722 732.83V732.83ZM644.534 101.29C643.41 101.342 642.319 101.685 641.368 102.286L394.241 244.931C391.964 246.431 390.07 248.442 388.709 250.805C387.349 253.167 386.559 255.815 386.404 258.537V725.504C386.184 726.337 386.244 727.219 386.574 728.015C386.905 728.811 387.487 729.476 388.233 729.909C388.978 730.341 389.845 730.516 390.7 730.408C391.555 730.299 392.351 729.912 392.964 729.307L640.092 586.611C645.529 583.497 647.929 580.28 647.929 576.196V106.038C648.031 105.213 647.916 104.376 647.593 103.61C647.271 102.844 646.753 102.176 646.091 101.673C645.614 101.413 645.077 101.281 644.534 101.29Z" fill="#D91F25"/>
<path d="M783.555 551.69C785.342 485.319 780.032 469.263 762.316 457.087L755.475 495.607C755.475 495.607 763.541 541.02 762.674 556.132C761.908 569.431 760.606 586.049 757.568 596.771C756.995 598.675 755.741 600.302 754.045 601.34C749.553 604.148 747.715 607.058 744.32 610.606C741.767 613.389 739.418 614.078 739.75 614.972C740.269 615.944 741.134 616.687 742.175 617.051C743.215 617.415 744.354 617.374 745.366 616.937C747.628 616.047 749.772 614.881 751.748 613.465C750.194 617.539 747.987 621.333 745.213 624.697C738.882 632.356 738.602 637.206 751.365 637.333C759.381 637.333 765.737 632.458 771.787 614.844C774.129 608.392 776.005 601.781 777.403 595.06C780.338 577.728 783.274 562.411 783.555 551.69Z" fill="#FFA8A7"/>
<path d="M747.434 452.032C752.866 451.081 758.461 451.915 763.38 454.409C768.3 456.903 772.279 460.923 774.722 465.868C782.15 479.116 783.963 501.938 784.933 524.58C784.933 524.58 770.204 536.884 752.539 530.834L747.434 452.032Z" fill="#37474F"/>
<path d="M772.297 817.682C773.624 818.193 773.956 820.745 774.16 825.825C774.313 829.654 775.156 836.368 770.638 837.721C766.119 839.074 759.533 838.385 756.649 834.76C753.166 829.891 749.434 825.205 745.468 820.72C741.026 815.946 736.202 811.479 734.389 804.765C732.781 798.69 734.134 796.061 738.269 794.299C743.962 791.874 752.896 799.788 757.364 801.039C761.193 802.162 770.944 817.223 772.297 817.682Z" fill="#263238"/>
<path d="M772.298 813.011V819.265C769.953 820.758 767.246 821.585 764.467 821.657C761.688 821.729 758.941 821.043 756.522 819.673C756.242 819.086 754.889 810.764 754.889 810.764L772.298 813.011Z" fill="#FFA8A7"/>
<path d="M721.753 853.675C722.853 857.028 723.773 860.436 724.51 863.886C725.276 867.639 726.374 873.944 725.072 876.777C723.77 879.611 718.562 881.5 710.598 881.5C705.493 881.5 697.375 884.972 691.836 888.06C686.296 891.149 674.299 892.502 668.249 891.787C661.152 890.945 653.8 886.835 652.651 883.899C651.503 880.964 653.009 877.901 669.755 870.753C669.908 870.753 693.061 863.095 701.153 854.237L721.753 853.675Z" fill="#263238"/>
<path d="M721.754 846.936V854.211C721.754 856.764 718.666 860.797 710.573 860.517C704.906 860.312 700.924 858.781 701.154 854.109V847.345L721.754 846.936Z" fill="#FFA8A7"/>
<path d="M776.356 730.226C774.971 719.17 772.5 708.277 768.979 697.705C768.979 697.705 771.2 669.625 772.272 643.102C773.421 614.384 772.272 578.315 772.757 571.142C772.757 571.142 680.119 552.405 678.46 585.59C676.801 618.775 682.136 703.244 683.208 717.846C684.28 732.447 686.833 745.313 689.845 768.9C692.857 792.487 701.153 847.294 701.153 847.294C704.355 848.929 707.911 849.748 711.505 849.677C715.099 849.605 718.62 848.647 721.754 846.885C721.754 846.885 728.289 780.515 727.6 763.692C727.07 751.232 724.925 738.893 721.218 726.984C721.218 726.984 722.979 699.619 724.536 675.93C726.093 652.241 727.727 640.677 728.085 630.339L730.076 629.343C730.076 629.343 732.118 670.416 733.19 684.992C734.262 699.568 736.611 713.532 740.848 740.616C744.524 764.126 755.424 813.828 755.424 813.828C765.992 819.546 772.323 813.062 772.323 813.062C772.323 813.062 779.19 750.622 776.356 730.226Z" fill="#37474F"/>
<path d="M728.086 630.288C728.086 630.288 750.55 619.209 761.807 609.228C761.807 609.228 751.367 623.931 737.659 630.466C737.659 630.466 732.783 681.521 732.808 680.448L729.975 630.211L728.086 630.288Z" fill="#263238"/>
<path d="M708.072 441.541L713.561 471.714L740.823 469.722L735.105 435.516L708.072 441.541Z" fill="#FFA8A7"/>
<path d="M769.617 467.502C766.912 459.307 756.522 450.373 746.107 452.313C730.633 454.937 715.382 458.743 700.49 463.698C690.968 467.093 682.264 475.338 681.472 506.711C681.472 506.711 678.282 579.821 678.23 593.963C698.131 601.77 719.806 603.909 740.848 600.14C769.49 593.886 772.936 581.991 772.936 581.991C772.936 581.991 773.319 529.43 772.451 506.711C771.711 487.413 771.455 473.066 769.617 467.502Z" fill="#D91F25"/>
<path d="M687.063 404.833C687.063 404.833 680.145 415.86 680.987 416.907C681.83 417.953 687.114 418.796 687.114 418.796L687.063 404.833Z" fill="#F28F8F"/>
<path d="M706.235 374.353C691.837 377.723 687.804 384.181 686.962 407.232C686.068 431.279 688.697 438.784 691.914 441.949C694.109 444.093 705.954 444.221 711.902 442.434C719.33 440.213 736.101 433.831 743.734 421.578C752.719 407.13 754.736 387.806 744.602 380.122C730.307 369.299 712.106 372.975 706.235 374.353Z" fill="#FFA8A7"/>
<path d="M687.115 380.352C690.42 385.169 695.086 388.893 700.516 391.048C703.273 394.188 701.767 406.364 706.617 408.432C706.617 408.432 708.711 399.472 716.216 400.442C723.721 401.412 725.022 410.959 720.402 416.907C715.782 422.855 711.314 420.71 711.314 420.71C711.314 420.71 711.825 433.474 717.62 440.468C717.62 440.468 724.052 442.408 735.795 439.626C742.994 437.916 753.026 428.649 757.11 418.975C765.738 398.553 765.968 380.25 752.924 375.068C751.315 365.776 743.861 361.743 735.437 360.007C717.288 356.255 705.596 367.665 691.633 366.593C683.643 366.031 682.162 371.852 687.115 380.352Z" fill="#263238"/>
<path d="M753.205 378.182L761.756 372.898C761.482 372.204 761.058 371.579 760.515 371.067C759.973 370.554 759.325 370.167 758.616 369.932C757.908 369.697 757.157 369.621 756.415 369.707C755.674 369.794 754.961 370.043 754.326 370.435C753.691 370.827 753.15 371.354 752.741 371.978C752.331 372.602 752.064 373.308 751.957 374.047C751.85 374.786 751.906 375.539 752.122 376.253C752.338 376.968 752.707 377.626 753.205 378.182V378.182Z" fill="#263238"/>
<path d="M585.236 518.02C589.703 520.011 642.518 559.016 650.738 554.472C658.958 549.929 701.205 500.585 701.205 500.585C704.774 495.072 706.673 488.645 706.673 482.078C706.673 475.51 704.774 469.083 701.205 463.57C701.205 463.57 687.676 466.123 680.579 476.793C673.483 487.464 642.901 525.882 642.901 525.882C635.345 522.104 627.806 518.275 620.284 514.395C614.107 511.178 607.904 507.988 601.854 504.541C600.153 503.753 598.551 502.768 597.08 501.606C594.093 498.645 594.527 491.395 594.681 487.617C594.681 485.804 594.681 483.992 594.936 482.18C595.191 479.959 595.625 474.522 591.617 476.257C590.859 476.619 590.201 477.163 589.703 477.84C589.087 478.671 588.605 479.592 588.273 480.571C587.533 482.92 587.763 485.498 587.074 487.872C586.991 488.222 586.824 488.546 586.588 488.817C586.233 489.093 585.787 489.23 585.338 489.2C579.518 489.021 574.004 480.878 571.323 476.436C570.396 474.33 568.857 472.552 566.907 471.331C563.742 469.85 559.913 471.969 557.845 474.828C555.355 478.586 554.337 483.13 554.986 487.591C555.525 493.698 558.243 499.406 562.644 503.673C569.295 509.717 576.937 514.57 585.236 518.02V518.02Z" fill="#FFA8A7"/>
<path d="M705.519 461.988C699.699 462.651 690.024 463.085 680.528 473.832C669.449 486.366 654.848 506.864 654.848 506.864C656.346 512.9 659.549 518.377 664.076 522.641C668.602 526.905 674.261 529.776 680.375 530.911C680.375 530.911 700.362 510.489 705.902 499.181C711.441 487.872 712.386 469.595 705.519 461.988Z" fill="#37474F"/>
<path d="M807.396 201.943V121.456L854.928 152.88C841.092 174.527 825.546 190.635 807.396 201.943Z" fill="#455A64"/>
<path d="M807.397 121.456L788.379 110.48V190.967L807.397 201.943V121.456Z" fill="#37474F"/>
<path d="M882.522 60.4977L811.276 111.731L792.258 100.779L863.504 49.5211L882.522 60.4977Z" fill="#D91F25"/>
<path opacity="0.5" d="M882.522 60.4977L811.276 111.731L792.258 100.779L863.504 49.5211L882.522 60.4977Z" fill="black"/>
<path d="M882.523 60.4977C884.464 86.4843 876.805 115.202 860.238 144.099L830.525 124.469L811.277 111.705L882.523 60.4977Z" fill="#D91F25"/>
<path opacity="0.3" d="M882.523 60.4977C884.464 86.4843 876.805 115.202 860.238 144.099L830.525 124.469L811.277 111.705L882.523 60.4977Z" fill="black"/>
<path d="M860.236 144.099L841.219 133.122L792.258 100.779L811.276 111.731L860.236 144.099Z" fill="#D91F25"/>
<path opacity="0.7" d="M860.236 144.099L841.219 133.122L792.258 100.779L811.276 111.731L860.236 144.099Z" fill="black"/>
<path d="M782.762 76.5798L769.182 21.5179C771.096 19.9607 772.909 18.5567 775.129 16.974C800.197 -1.07361 824.039 -4.31556 840.657 5.28263L859.471 16.1316C865.061 22.9474 860.798 30.2992 862.611 41.6587L788.225 95.2656L787.485 95.8017L782.762 76.5798Z" fill="#D91F25"/>
<path opacity="0.7" d="M782.762 76.5798L769.182 21.5179C771.096 19.9607 772.909 18.5567 775.129 16.974C800.197 -1.07361 824.039 -4.31556 840.657 5.28263L859.471 16.1316C865.061 22.9474 860.798 30.2992 862.611 41.6587L788.225 95.2656L787.485 95.8017L782.762 76.5798Z" fill="white"/>
<path d="M801.78 87.6075L788.199 32.5456C790.088 30.9884 791.926 29.5844 794.122 28.0017C836.139 -2.22234 874.634 9.06063 881.628 52.7375L807.242 106.344L806.502 106.88L801.78 87.6075Z" fill="#D91F25"/>
<path opacity="0.5" d="M801.78 87.6075L788.199 32.5456C790.088 30.9884 791.926 29.5844 794.122 28.0017C836.139 -2.22234 874.634 9.06063 881.628 52.7375L807.242 106.344L806.502 106.88L801.78 87.6075Z" fill="white"/>
<path d="M769.182 21.5179L788.174 32.4945L806.502 106.727L787.485 95.7506L769.182 21.5179Z" fill="#D91F25"/>
<path opacity="0.1" d="M769.182 21.5179L788.174 32.4945L806.502 106.727L787.485 95.7506L769.182 21.5179Z" fill="black"/>
<path d="M781.129 195.153C768.825 201.637 758.155 210.597 748.071 210.214L729.079 199.237C719.124 193.57 711.772 183.13 708.096 168.273C702.991 147.571 706.181 121.227 717.03 94.0658C727.024 68.9062 742.423 46.2488 762.137 27.6954L781.154 38.6721L774.109 76.1713L781.129 104.634V195.153Z" fill="#D91F25"/>
<path opacity="0.2" d="M781.129 195.153C768.825 201.637 758.155 210.597 748.071 210.214L729.079 199.237C719.124 193.57 711.772 183.13 708.096 168.273C702.991 147.571 706.181 121.227 717.03 94.0658C727.024 68.9062 742.423 46.2488 762.137 27.6954L781.154 38.6721L774.109 76.1713L781.129 104.634V195.153Z" fill="black"/>
<path d="M800.248 206.13C764.97 224.739 735.869 214.247 727.241 179.25C722.135 158.547 725.326 132.203 736.175 105.042C746.159 79.8777 761.559 57.2184 781.281 38.6721L793.228 87.1735L800.248 115.534V206.13Z" fill="#D91F25"/>
<path d="M842.801 418.719C842.861 417.571 843.193 416.454 843.77 415.46C844.347 414.466 845.153 413.623 846.119 413.001L1014.9 315.539C1015.93 315.023 1017.06 314.754 1018.21 314.754C1019.36 314.754 1020.49 315.023 1021.52 315.539L1025.22 317.683C1026.18 318.306 1026.99 319.15 1027.56 320.143C1028.14 321.137 1028.47 322.254 1028.54 323.401V452.798C1028.47 453.945 1028.14 455.062 1027.56 456.056C1026.99 457.05 1026.18 457.893 1025.22 458.516L856.407 555.953C855.385 556.481 854.251 556.757 853.101 556.757C851.951 556.757 850.817 556.481 849.795 555.953L846.094 553.809C845.127 553.187 844.322 552.344 843.745 551.35C843.168 550.356 842.836 549.239 842.775 548.091L842.801 418.719Z" fill="#D91F25"/>
<path opacity="0.4" d="M842.801 418.719C842.861 417.571 843.193 416.454 843.77 415.46C844.347 414.466 845.153 413.623 846.119 413.001L1014.9 315.539C1015.93 315.023 1017.06 314.754 1018.21 314.754C1019.36 314.754 1020.49 315.023 1021.52 315.539L1025.22 317.683C1026.18 318.306 1026.99 319.15 1027.56 320.143C1028.14 321.137 1028.47 322.254 1028.54 323.401V452.798C1028.47 453.945 1028.14 455.062 1027.56 456.056C1026.99 457.05 1026.18 457.893 1025.22 458.516L856.407 555.953C855.385 556.481 854.251 556.757 853.101 556.757C851.951 556.757 850.817 556.481 849.795 555.953L846.094 553.809C845.127 553.187 844.322 552.344 843.745 551.35C843.168 550.356 842.836 549.239 842.775 548.091L842.801 418.719Z" fill="white"/>
<path d="M858.27 423.85L843.771 415.452C843.182 416.444 842.849 417.567 842.801 418.719V548.091C842.861 549.239 843.193 550.356 843.77 551.35C844.347 552.344 845.152 553.187 846.119 553.809L849.821 555.953C850.843 556.481 851.976 556.757 853.126 556.757C854.277 556.757 855.41 556.481 856.432 555.953L858.27 554.881V423.85Z" fill="#D91F25"/>
<path opacity="0.3" d="M858.27 423.85L843.771 415.452C843.182 416.444 842.849 417.567 842.801 418.719V548.091C842.861 549.239 843.193 550.356 843.77 551.35C844.347 552.344 845.152 553.187 846.119 553.809L849.821 555.953C850.843 556.481 851.976 556.757 853.126 556.757C854.277 556.757 855.41 556.481 856.432 555.953L858.27 554.881V423.85Z" fill="black"/>
<path d="M1028.54 323.401V452.798C1028.48 453.981 1028.13 455.131 1027.51 456.142C1027.02 456.981 1026.36 457.71 1025.57 458.286V458.286L1025.37 458.439L856.406 555.953C856.082 556.179 855.708 556.321 855.315 556.365C854.923 556.41 854.526 556.356 854.16 556.208C853.806 555.976 853.524 555.65 853.344 555.267C853.163 554.884 853.093 554.459 853.139 554.038V424.565C853.103 424.101 853.183 423.635 853.37 423.209C853.557 422.783 853.847 422.41 854.213 422.122C854.579 421.834 855.01 421.641 855.468 421.56C855.926 421.478 856.398 421.511 856.84 421.655L927.882 438.63L937.174 440.826C938.27 441.029 939.4 440.93 940.444 440.539C941.487 440.147 942.404 439.479 943.096 438.605L953.869 423.621L1026.37 322.686C1027.44 320.976 1028.54 321.308 1028.54 323.401Z" fill="#D91F25"/>
<path d="M1025.24 458.516L1025.45 458.363C1026.23 457.787 1026.89 457.057 1027.39 456.219C1028 455.222 1028.35 454.091 1028.41 452.926L953.691 423.697L1003.72 470.922L1025.24 458.516Z" fill="#D91F25"/>
<path opacity="0.2" d="M1025.24 458.516L1025.45 458.363C1026.23 457.787 1026.89 457.057 1027.39 456.219C1028 455.222 1028.35 454.091 1028.41 452.926L953.691 423.697L1003.72 470.922L1025.24 458.516Z" fill="black"/>
<path d="M853.139 554.064C853.093 554.485 853.164 554.91 853.344 555.293C853.524 555.676 853.806 556.001 854.16 556.234C854.526 556.381 854.923 556.435 855.315 556.391C855.708 556.346 856.083 556.204 856.406 555.979L914.531 522.436L927.806 438.656L853.113 551.92L853.139 554.064Z" fill="#D91F25"/>
<path opacity="0.2" d="M853.139 554.064C853.093 554.485 853.164 554.91 853.344 555.293C853.524 555.676 853.806 556.001 854.16 556.234C854.526 556.381 854.923 556.435 855.315 556.391C855.708 556.346 856.083 556.204 856.406 555.979L914.531 522.436L927.806 438.656L853.113 551.92L853.139 554.064Z" fill="black"/>
<path d="M1027.44 456.142C1026.94 456.981 1026.28 457.71 1025.5 458.286V458.286L856.407 555.953C856.083 556.179 855.708 556.321 855.316 556.365C854.923 556.41 854.526 556.356 854.16 556.208L934.979 427.118C936.609 424.538 939.11 422.628 942.027 421.733C944.945 420.839 948.086 421.019 950.882 422.242L1027.44 456.142Z" fill="#D91F25"/>
<path d="M853.141 420.864L930.769 455.198C933.567 456.418 936.711 456.594 939.629 455.695C942.547 454.796 945.045 452.88 946.672 450.296L1028.18 319.904L853.141 420.864Z" fill="#D91F25"/>
<path opacity="0.3" d="M853.141 420.864L930.769 455.198C933.567 456.418 936.711 456.594 939.629 455.695C942.547 454.796 945.045 452.88 946.672 450.296L1028.18 319.904L853.141 420.864Z" fill="black"/>
<path d="M853.141 420.864L931.305 450.092C934.009 451.092 936.972 451.147 939.712 450.248C942.451 449.348 944.805 447.548 946.391 445.14L1028.08 319.827L853.141 420.864Z" fill="#D91F25"/>
</g>
<defs>
<clipPath id="clip0_22_2421">
<rect width="1080" height="993.717" fill="white"/>
</clipPath>
</defs>
</svg>
