<svg width="93" height="20" viewBox="0 0 93 20" fill="none" xmlns="http://www.w3.org/2000/svg">
<path d="M79.8862 16.2222L92.9999 16.1951V0.265625H70.8672L77.3973 11.8803L79.8862 16.2222Z" fill="#E41A42"/>
<path d="M23.0181 4.47187V0.265625H18.0938L20.6094 4.47187H23.0181Z" fill="#E41A42"/>
<path d="M25.3672 9.85157C25.3672 15.4418 29.7027 19.648 35.4567 19.648C38.1062 19.648 41.2909 18.6168 43.3249 17.1514V9.68875H39.1767V14.6548C38.0527 15.2247 36.7948 15.5775 35.8314 15.5775C32.7001 15.5775 30.2915 13.108 30.2915 9.85157C30.2915 6.6494 32.6734 4.17993 35.7778 4.17993C37.5442 4.17993 39.4443 4.96691 40.836 6.26948L43.539 2.95876C41.5853 1.19486 38.6147 0.109375 35.8046 0.109375C29.8365 0.109375 25.3672 4.28848 25.3672 9.85157Z" fill="black"/>
<path d="M18.0938 4.47656V19.4562L23.0181 19.4833V8.6828L20.6094 4.47656H18.0938Z" fill="black"/>
<path d="M15.5223 13.7585C15.5223 9.66079 12.4714 8.49389 9.44719 7.86974L9.17957 7.81547C6.42302 7.24559 5.03137 6.97422 5.03137 5.53596C5.03137 4.31479 6.07511 3.63636 7.8682 3.63636C9.71482 3.63636 10.9459 4.3962 11.3741 5.80733L11.4009 5.91588L15.3885 4.83039L15.3617 4.72185C14.4786 1.62822 11.8023 0 7.60058 0C2.91712 0 0.347914 2.03528 0.347914 5.72592C0.347914 9.33514 2.81007 10.4206 5.48633 11.0448C6.02158 11.1533 6.50331 11.2619 6.95827 11.3704C9.42043 11.886 10.8924 12.1845 10.8924 13.867C10.8924 15.5767 9.34014 15.9566 8.02878 15.9566C5.48633 15.9566 4.3623 14.6269 4.1482 13.3514L4.12144 13.2429L0 14.3555L0.0267626 14.464C0.481727 16.7707 2.24806 19.5387 8.02878 19.5387C12.8728 19.5387 15.5223 17.5034 15.5223 13.7585Z" fill="black"/>
<path d="M69.5358 4.50312L67.1271 0.296875H62.2028L56.77 11.7216L51.4443 0.296875H46.3594V19.4828H50.6682V7.02686L55.191 17.149H58.3223L62.8719 7.02686L62.8987 19.4828H67.1271V4.50312H69.5358Z" fill="black"/>
<path d="M90.2166 19.4828L79.2707 0.296875L76.8888 4.50312L74.507 8.70936H74.4802L68.3516 19.4828H73.1421L79.2707 8.68222L85.4261 19.4828H90.2166Z" fill="black"/>
</svg>
