<?xml version="1.0" standalone="no"?>
<!DOCTYPE svg PUBLIC "-//W3C//DTD SVG 20010904//EN"
 "http://www.w3.org/TR/2001/REC-SVG-20010904/DTD/svg10.dtd">
<svg version="1.0" xmlns="http://www.w3.org/2000/svg"
 width="700.000000pt" height="700.000000pt" viewBox="0 0 700.000000 700.000000"
 preserveAspectRatio="xMidYMid meet">
<metadata>
Created by potrace 1.14, written by Peter Selinger 2001-2017
</metadata>
<g transform="translate(0.000000,700.000000) scale(0.100000,-0.100000)"
fill="#000000" stroke="none">
<path d="M3279 6996 c-2 -2 -48 -7 -102 -10 -53 -4 -103 -9 -110 -11 -6 -2
-37 -6 -67 -10 -30 -3 -122 -19 -204 -36 -440 -90 -864 -267 -1245 -521 -57
-38 -109 -74 -115 -79 -6 -5 -49 -39 -96 -76 -461 -361 -834 -847 -1060 -1377
-52 -124 -124 -336 -115 -344 3 -3 16 0 27 7 48 30 545 275 803 396 39 18 115
54 170 80 55 26 170 80 255 120 85 40 209 98 275 130 66 31 163 76 215 100 52
24 131 60 175 80 170 79 213 99 315 145 169 75 709 319 778 351 35 16 65 29
67 29 2 0 32 13 67 29 78 36 348 151 354 151 3 0 24 8 47 18 130 57 237 94
237 83 0 -24 -219 -177 -725 -506 -114 -73 -275 -178 -340 -220 -141 -91 -336
-214 -575 -363 -146 -90 -276 -171 -290 -180 -14 -9 -37 -23 -52 -32 -14 -8
-191 -114 -392 -235 -201 -121 -378 -227 -393 -236 -16 -9 -91 -53 -168 -99
-342 -202 -408 -241 -537 -313 -75 -42 -209 -113 -297 -157 -94 -48 -162 -88
-164 -98 -19 -70 -12 -668 8 -702 1 -3 5 -27 9 -55 6 -54 8 -62 32 -205 9 -50
45 -225 49 -238 4 -11 7 -11 19 0 95 90 133 124 201 182 44 38 91 78 105 90
14 12 63 53 110 91 47 38 87 72 90 75 6 7 264 218 355 291 275 220 702 543
913 691 18 13 52 37 75 54 39 28 123 86 320 221 243 167 605 403 719 468 9 6
112 67 228 138 117 70 216 127 221 127 5 0 9 5 9 10 0 6 4 10 8 10 5 0 71 35
148 78 242 135 590 316 809 419 248 117 311 144 545 241 319 131 390 158 635
237 l204 67 -67 57 c-343 292 -760 528 -1178 665 -107 36 -352 101 -418 111
-17 3 -42 7 -56 10 -25 5 -64 11 -117 19 -27 4 -103 14 -166 22 -43 5 -543 14
-548 10z"/>
<path d="M6448 6034 c-2 -1 -32 -5 -67 -8 -35 -4 -67 -9 -71 -11 -4 -2 -21 -7
-38 -10 -122 -21 -590 -216 -787 -328 -22 -12 -71 -40 -110 -62 -402 -225
-884 -544 -1350 -894 -262 -196 -667 -516 -733 -578 -7 -7 -34 -29 -60 -50
-25 -21 -60 -50 -77 -64 -16 -15 -55 -48 -85 -74 -123 -106 -452 -398 -510
-451 -25 -24 -56 -52 -69 -63 -170 -147 -681 -659 -896 -896 -49 -55 -92 -102
-95 -105 -22 -22 -162 -184 -229 -265 -46 -55 -92 -110 -102 -123 -227 -268
-420 -542 -579 -817 -146 -254 -205 -489 -155 -613 49 -120 191 -158 422 -113
106 21 269 73 287 92 8 9 -3 10 -49 5 -33 -3 -71 -8 -85 -11 -45 -10 -164 -8
-205 4 -104 29 -141 83 -132 195 3 39 13 89 22 111 36 86 103 222 128 262 l27
43 42 -48 c125 -138 305 -305 452 -420 45 -35 88 -69 96 -75 48 -39 380 -247
394 -247 2 0 36 -18 75 -39 90 -50 108 -56 124 -39 17 19 144 164 197 227 25
30 52 61 61 70 8 9 40 45 70 81 30 36 59 69 65 75 6 5 75 87 154 180 79 94
147 172 150 175 3 3 30 34 59 70 30 36 60 70 65 75 6 6 36 39 66 75 30 36 57
67 60 70 3 3 34 39 70 80 36 41 67 77 70 80 3 3 37 41 75 85 39 44 79 89 90
101 11 11 56 60 100 109 341 376 904 929 1174 1153 24 21 49 42 55 47 9 9 133
108 196 158 34 27 126 94 139 102 17 10 15 7 -124 -213 -117 -184 -514 -782
-642 -964 -138 -199 -142 -205 -254 -363 -122 -173 -342 -479 -439 -610 -36
-49 -104 -142 -150 -205 -47 -63 -88 -119 -93 -125 -4 -5 -136 -181 -292 -390
-191 -253 -281 -381 -273 -386 13 -6 193 -44 258 -54 19 -3 46 -7 60 -10 39
-7 126 -16 230 -25 90 -7 511 -5 575 4 17 2 62 7 100 11 39 4 79 9 90 11 10 2
37 6 60 9 294 42 687 168 981 313 433 215 845 547 1175 947 271 328 504 762
614 1140 9 33 21 71 26 85 10 30 55 221 63 270 3 19 8 46 11 60 3 14 7 40 10
57 2 18 7 48 10 65 7 44 12 89 20 184 4 43 9 95 11 114 5 49 5 429 -1 465 -2
17 -6 62 -9 100 -18 234 -83 539 -170 790 -125 365 -330 737 -583 1057 l-53
66 93 23 c129 31 248 32 302 1 46 -26 79 -70 93 -123 9 -35 8 -169 -2 -238 -7
-49 7 -29 49 69 73 170 95 331 56 416 -23 51 -80 98 -136 114 -37 10 -160 21
-167 14z"/>
</g>
</svg>
